<?xml version="1.0" encoding="utf-8"?>
<svg id="Capa_1" data-name="Capa 1" xmlns="http://www.w3.org/2000/svg" viewBox="0 0 30.53 20"><defs><style>.cls-1{fill:#c41a2f;}.cls-2{fill:#ffd250;}.cls-3{fill:#f5f5f5;}.cls-4{fill:#fab446;}.cls-5{fill:#ffb441;}.cls-6{fill:#5064aa;}.cls-7{fill:#ffa0d2;}</style></defs><title>españa</title><path class="cls-1" d="M0,17.71A2.28,2.28,0,0,0,2.29,20h26a2.29,2.29,0,0,0,2.29-2.29V15.79H0Z"/><path class="cls-1" d="M28.24,0H2.29A2.28,2.28,0,0,0,0,2.29V4.21H30.53V2.29A2.29,2.29,0,0,0,28.24,0Z"/><rect class="cls-2" y="4.21" width="30.53" height="11.58"/><path class="cls-1" d="M12.89,10l.45-2a.3.3,0,0,0-.29-.36h-.31a.3.3,0,0,0-.29.36Z"/><rect class="cls-3" x="12.37" y="8.95" width="1.05" height="4.47"/><rect class="cls-4" x="12.11" y="8.42" width="1.58" height="0.53"/><rect class="cls-1" x="11.05" y="10" width="2.63" height="0.53"/><polygon class="cls-1" points="13.68 12.11 12.11 11.58 12.11 11.05 13.68 11.58 13.68 12.11"/><path class="cls-1" d="M5,10l.45-2a.3.3,0,0,0-.29-.36H4.84A.3.3,0,0,0,4.55,8Z"/><path class="cls-3" d="M6.84,8.42A.52.52,0,0,0,6.32,9v3.42c0,.64.59,1.84,2.63,1.84s2.63-1.2,2.63-1.84V9a.53.53,0,0,0-.53-.53Z"/><path class="cls-1" d="M9,11.05H6.32V9a.52.52,0,0,1,.52-.53H9Z"/><path class="cls-1" d="M9,11.05h2.63v1.32a1.31,1.31,0,0,1-1.32,1.31h0A1.31,1.31,0,0,1,9,12.37Z"/><path class="cls-4" d="M6.32,11.05H9v1.32a1.31,1.31,0,0,1-1.32,1.31h0a1.3,1.3,0,0,1-1.31-1.31Z"/><path class="cls-1" d="M8.42,13.42V11.05H7.89v2.61A1.35,1.35,0,0,0,8.42,13.42Z"/><path class="cls-1" d="M7.37,13.66V11.05H6.84v2.37A1.42,1.42,0,0,0,7.37,13.66Z"/><rect class="cls-5" x="6.84" y="10" width="1.58" height="0.53"/><rect class="cls-4" x="6.84" y="8.95" width="1.58" height="0.53"/><rect class="cls-4" x="7.11" y="9.26" width="1.05" height="0.95"/><rect class="cls-3" x="4.47" y="8.95" width="1.05" height="4.47"/><rect class="cls-4" x="4.21" y="13.16" width="1.58" height="0.53"/><rect class="cls-4" x="4.21" y="8.42" width="1.58" height="0.53"/><rect class="cls-6" x="3.95" y="13.68" width="2.11" height="0.53"/><rect class="cls-4" x="12.37" y="13.16" width="1.58" height="0.53"/><rect class="cls-6" x="11.84" y="13.68" width="2.11" height="0.53"/><rect class="cls-4" x="7.37" y="7.89" width="3.16" height="0.53"/><rect class="cls-5" x="8.68" y="6.32" width="0.53" height="1.58"/><path class="cls-3" d="M8.42,7.11a.79.79,0,0,1,0-1.58.79.79,0,1,1,0,1.58Zm0-1.06a.27.27,0,0,0,0,.53.27.27,0,0,0,0-.53Z"/><path class="cls-3" d="M9.47,7.11a.79.79,0,1,1,0-1.58.79.79,0,1,1,0,1.58Zm0-1.06a.27.27,0,1,0,.27.27A.27.27,0,0,0,9.47,6.05Z"/><path class="cls-3" d="M10.53,7.63a.79.79,0,1,1,0-1.58.79.79,0,1,1,0,1.58Zm0-1a.27.27,0,1,0,.26.26A.27.27,0,0,0,10.53,6.58Z"/><path class="cls-3" d="M7.37,7.63a.79.79,0,1,1,0-1.58.79.79,0,1,1,0,1.58Zm0-1a.27.27,0,0,0,0,.53.27.27,0,0,0,0-.53Z"/><path class="cls-4" d="M10.53,12.11v.26a.27.27,0,0,1-.53,0v-.26h.53m.52-.53H9.47v.79a.79.79,0,1,0,1.58,0v-.79Z"/><path class="cls-7" d="M10.26,10.53h0A.52.52,0,0,1,9.74,10V9.47A.52.52,0,0,1,10.26,9h0a.52.52,0,0,1,.53.52V10A.53.53,0,0,1,10.26,10.53Z"/><circle class="cls-6" cx="8.95" cy="11.05" r="0.79"/><rect class="cls-4" x="8.68" y="5.26" width="0.53" height="1.58"/><path class="cls-1" d="M7.37,7.89l-.53-.52.31-.31A2.53,2.53,0,0,1,9,6.32H9a2.5,2.5,0,0,1,1.79.74l.31.31-.52.52Z"/><circle class="cls-2" cx="8.95" cy="7.37" r="0.26"/><circle class="cls-2" cx="7.89" cy="7.37" r="0.26"/><circle class="cls-2" cx="10" cy="7.37" r="0.26"/><rect class="cls-1" x="4.21" y="10" width="2.63" height="0.53"/><polygon class="cls-1" points="4.21 12.11 5.79 11.58 5.79 11.05 4.21 11.58 4.21 12.11"/></svg>