<?xml version="1.0" encoding="utf-8"?>
<svg id="Capa_1" data-name="Capa 1" xmlns="http://www.w3.org/2000/svg" viewBox="0 0 68 68"><defs><style>.cls-1{fill:#05b93c;}</style></defs><title>icono 1</title><path class="cls-1" d="M63.28,12.75H60.63v-1A3.66,3.66,0,0,0,57,8.1H53.66A3.66,3.66,0,0,0,50,11.75v1H47.46V9a4.24,4.24,0,0,0-4.24-4.24H24.51A4.24,4.24,0,0,0,20.27,9v3.73H18v-1A3.66,3.66,0,0,0,14.34,8.1H11a3.66,3.66,0,0,0-3.65,3.65v1H4.72A4.73,4.73,0,0,0,0,17.47v41a4.73,4.73,0,0,0,4.72,4.72H63.28A4.73,4.73,0,0,0,68,58.5v-41A4.73,4.73,0,0,0,63.28,12.75Zm-10.62-1a1,1,0,0,1,1-1H57a1,1,0,0,1,1,1v1H52.66ZM22.92,9a1.59,1.59,0,0,1,1.59-1.58H43.22A1.58,1.58,0,0,1,44.8,9v3.73H22.92ZM10,11.75a1,1,0,0,1,1-1h3.32a1,1,0,0,1,1,1v1H10ZM65.34,58.5h0a2.06,2.06,0,0,1-2.06,2.06H4.72A2.06,2.06,0,0,1,2.66,58.5v-41a2.06,2.06,0,0,1,2.06-2.06H63.28a2.06,2.06,0,0,1,2.06,2.06ZM47.41,31.63h-7V24.57A1.33,1.33,0,0,0,39,23.25H29a1.33,1.33,0,0,0-1.33,1.32v7.06h-7A1.33,1.33,0,0,0,19.26,33V43a1.33,1.33,0,0,0,1.33,1.33h7.05v7A1.33,1.33,0,0,0,29,52.72H39a1.33,1.33,0,0,0,1.33-1.33v-7h7A1.33,1.33,0,0,0,48.74,43V33A1.33,1.33,0,0,0,47.41,31.63ZM46.08,41.68H39A1.34,1.34,0,0,0,37.7,43v7.06H30.3V43A1.34,1.34,0,0,0,29,41.68h-7v-7.4h7A1.33,1.33,0,0,0,30.3,33V25.9h7.4V33A1.33,1.33,0,0,0,39,34.28h7Z"/></svg>