<?xml version="1.0" encoding="utf-8"?>
<svg id="Capa_1" data-name="Capa 1" xmlns="http://www.w3.org/2000/svg" viewBox="0 0 68 68"><defs><style>.cls-1{fill:#05b93c;}</style></defs><title>icono 3</title><path class="cls-1" d="M30.32,62.18a1.33,1.33,0,0,1,1.33-1.33h4.7a1.33,1.33,0,0,1,0,2.66h-4.7A1.33,1.33,0,0,1,30.32,62.18Zm25-57.43v58.5A4.75,4.75,0,0,1,50.53,68H17.47a4.75,4.75,0,0,1-4.75-4.75V4.75A4.75,4.75,0,0,1,17.47,0H50.53A4.75,4.75,0,0,1,55.28,4.75ZM52.62,57.93H15.38v5.32a2.1,2.1,0,0,0,2.09,2.09H50.53a2.1,2.1,0,0,0,2.09-2.09Zm0-16.61h0A13.31,13.31,0,0,0,45,32.49l-.22-.1-.09.23A10.48,10.48,0,0,1,37.65,39a9.93,9.93,0,0,1-2.49.31,10.83,10.83,0,0,1-6.78-2.48l-.19-.16-.15.2a13.32,13.32,0,0,0-2.36,11.4l1.81,7h5.78l-1.74-6.72a1.41,1.41,0,0,1,1-1.71,1.45,1.45,0,0,1,.35,0,1.4,1.4,0,0,1,1.36,1.05l1.56,6,0,.13L36,54l.65.21a4,4,0,0,1,1.66,1h6.65a4,4,0,0,1,1-3.44l.47-.51.09-.09,0-.13-1.56-6a1.39,1.39,0,0,1,1-1.71,1.34,1.34,0,0,1,.35,0,1.39,1.39,0,0,1,1.35,1l1.79,6.9a1.4,1.4,0,0,1-.33,1.31L48,53.74a1.28,1.28,0,0,0-.3,1.18,2.09,2.09,0,0,0,.13.35H52.4l.22-.05ZM34.24,18.65a7,7,0,0,0-1.29.12h0l-.49.13L32,19h0c-4,1.36-6.18,6-5,10.58,1.06,4.08,4.44,6.93,8.22,6.93a7.34,7.34,0,0,0,1.8-.23c4.28-1.11,6.75-5.92,5.5-10.73C41.4,21.5,38,18.65,34.24,18.65Zm5.49-1.21a11.92,11.92,0,0,1,4.36,4.68l.17.31.23-.27.87-1.05a1.14,1.14,0,0,0,.27-.86,1.18,1.18,0,0,0-.43-.79l-.89-.73c-1.49-1.22-2.32-1.86-3.49-1.86a4.38,4.38,0,0,0-1,.13l-.57.13Zm12.89-6.68H15.38V55.27H24.6L23,49a16.07,16.07,0,0,1,3.18-14.22l.12-.14-.11-.15a12.68,12.68,0,0,1-1.71-3.41l0-.11-.1,0L21.2,29.71A4,4,0,0,1,19,24.52l.4-1c.93-2.34,1.8-4.56,5.17-5.43l7.19-1.87,7.19-1.86a7.72,7.72,0,0,1,1.89-.26c2.23,0,3.7,1.22,5.26,2.5.28.24.56.46.86.7a3.94,3.94,0,0,1,.57,5.62l-2.12,2.57-.08.08,0,.11a12.61,12.61,0,0,1,.17,3.82l0,.19.18.06a16,16,0,0,1,7,5.3ZM25.36,21.16l.29-.51-.56.16c-1.78.51-2.21,1.44-3.1,3.71l-.43,1.06a1.13,1.13,0,0,0,0,.9,1.12,1.12,0,0,0,.64.62l1.28.5.33.13v-.36A12,12,0,0,1,25.36,21.16ZM52.62,4.75a2.1,2.1,0,0,0-2.09-2.09H17.47a2.1,2.1,0,0,0-2.09,2.09V8.1H52.62Zm-21,21.39A1.63,1.63,0,0,0,30.34,26a1.69,1.69,0,0,0-1,.76A1.63,1.63,0,0,0,29.17,28a1.62,1.62,0,0,0,2,1.17,1.64,1.64,0,0,0,1.18-2A1.6,1.6,0,0,0,31.58,26.14Zm5.32,1a1.62,1.62,0,0,0,2.24-.58,1.65,1.65,0,0,0-.58-2.24,1.62,1.62,0,0,0-2.24.58,1.63,1.63,0,0,0-.18,1.24A1.66,1.66,0,0,0,36.9,27.15Zm-.55,2.6-2.3.59a1.21,1.21,0,0,0-.36,2.18l1.48,1A1.21,1.21,0,0,0,36.9,33l.82-1.56a1.22,1.22,0,0,0-.12-1.31A1.2,1.2,0,0,0,36.35,29.75Z"/></svg>