<?xml version="1.0" encoding="utf-8"?>
<svg id="Capa_1" data-name="Capa 1" xmlns="http://www.w3.org/2000/svg" viewBox="0 0 68 68"><defs><style>.cls-1{fill:#05b93c;}</style></defs><title>icono 2</title><path class="cls-1" d="M46.39,40.74a1.1,1.1,0,0,1,.81-1.84h2.17a1.09,1.09,0,0,1,1,.66,1.07,1.07,0,0,1-.19,1.18L49.1,41.93a1.09,1.09,0,0,1-.81.36,1.11,1.11,0,0,1-.82-.36ZM68,46.21v3a8.71,8.71,0,0,1-1.28,4.54,8.9,8.9,0,0,1-3.38,3.18l-.18.09.11.17a3.28,3.28,0,0,1,.59,1.89v.07a4,4,0,0,1-4,4H1.16A1.16,1.16,0,0,1,0,62V42.1A14.43,14.43,0,0,1,12.57,27.81l.34,0-.24-.25a8.06,8.06,0,0,1-2.26-5.61V11.18a6.31,6.31,0,0,1,6.3-6.3H28.53A1.16,1.16,0,0,1,29.69,6V10a6.75,6.75,0,0,1-3,5.61l-.07.05v6.28a8.06,8.06,0,0,1-2.26,5.61l-.24.25.34,0A14.43,14.43,0,0,1,37,42.1v2.55l.31-.41a13.18,13.18,0,0,1,2.79-2.74l.11-.08-.05-.12a10.19,10.19,0,0,1-.65-3.06v-.08l-.07,0-2.2-1.58A3.25,3.25,0,0,1,36,34.38a3.19,3.19,0,0,1,.61-2.44c.19-.24.36-.48.53-.72C38.3,29.55,39.44,28,42.29,28H54.41c2.85,0,4,1.57,5.2,3.24l.53.72a3.19,3.19,0,0,1,.61,2.44,3.25,3.25,0,0,1-1.31,2.15l-2.2,1.58-.07,0v.08a10.52,10.52,0,0,1-.66,3.06l0,.12.11.08A13.08,13.08,0,0,1,62,52.08V55l.26-.14a6.42,6.42,0,0,0,3.43-5.67v-3a1.16,1.16,0,1,1,2.32,0ZM54.12,30.29l.29.31a9.85,9.85,0,0,1,2.5,4.59l.06.26.21-.16.9-.65a.89.89,0,0,0,.38-.61.9.9,0,0,0-.18-.69l-.55-.76C56.57,31,56,30.34,54.54,30.3ZM41.84,37.6c0,4,2.92,7.31,6.51,7.31s6.51-3.28,6.51-7.31c0-3.84-2.67-7-6.08-7.3h-.86C44.51,30.55,41.84,33.76,41.84,37.6Zm.45-7,.29-.31h-.42c-1.5,0-2,.69-3.19,2.28l-.55.76a.9.9,0,0,0-.18.69.89.89,0,0,0,.38.61l.9.65.21.16.06-.26A9.85,9.85,0,0,1,42.29,30.6ZM12.73,14.41H22.92A4.45,4.45,0,0,0,27.37,10V7.2H16.71a4,4,0,0,0-4,4v3.23Zm5.79,13.28a5.79,5.79,0,0,0,5.78-5.78V16.73H12.73v5.18A5.79,5.79,0,0,0,18.52,27.69ZM22.91,30h-9v.19a4.59,4.59,0,0,0,9.13,0l0-.19ZM34.71,42.1a11.93,11.93,0,0,0-2.6-7.47,12.12,12.12,0,0,0-6.52-4.24l-.19-.05,0,.2a6.91,6.91,0,0,1-13.73,0l0-.2-.19.05a12.12,12.12,0,0,0-6.52,4.24,11.93,11.93,0,0,0-2.6,7.47V60.8H6.41v-15a1.16,1.16,0,0,1,2.32,0v15H28.3v-15a1.16,1.16,0,1,1,2.32,0v15h2.57l-.09-.24a4,4,0,0,1-.26-1.41v-.07a3.33,3.33,0,0,1,1.4-2.72l.39-.29.08,0V42.1Zm26.83,17a1,1,0,0,0-.43-.82l-1-.68,0,0-.08-.06h0L60,57.38h0l-.06-.09h0L59.75,57v0h0l0-.09v0h0v0a.09.09,0,0,1,0,0v-.06a.57.57,0,0,1,0-.13V52.08a10.8,10.8,0,0,0-4.18-8.49l-.14-.11-.11.14a8.37,8.37,0,0,1-13.78,0l-.1-.14-.15.11A10.8,10.8,0,0,0,37,52.08v4.54a1.17,1.17,0,0,1-.49,1l-.95.68a1,1,0,0,0-.43.82v.08a1.65,1.65,0,0,0,1.65,1.65H42a1.65,1.65,0,0,0,1.65-1.65,1,1,0,0,0-.47-.86l-1.09-.69a1.14,1.14,0,0,1-.54-1V50.81a1.16,1.16,0,1,1,2.32,0V56L44,56l.48.3A3.32,3.32,0,0,1,46,59.15a3.75,3.75,0,0,1-.26,1.41l-.09.24h5.46L51,60.56a3.75,3.75,0,0,1-.26-1.41,3.34,3.34,0,0,1,1.54-2.82l.48-.3.08-.05V50.81a1.16,1.16,0,1,1,2.32,0v5.81a1.14,1.14,0,0,1-.54,1l-1.09.69a1,1,0,0,0-.47.86A1.65,1.65,0,0,0,54.7,60.8h5.19a1.66,1.66,0,0,0,1.64-1.48h0v-.25Z"/></svg>