<?xml version="1.0" encoding="utf-8"?>
<svg id="Capa_1" data-name="Capa 1" xmlns="http://www.w3.org/2000/svg" viewBox="0 0 36 36"><defs><style>.cls-1{fill:#fff;}</style></defs><title>instagram</title><path class="cls-1" d="M23.36,9.58H12.64a3.1,3.1,0,0,0-3.11,3.1V23.41a3.11,3.11,0,0,0,3.11,3.11H23.36a3.11,3.11,0,0,0,3.11-3.11V12.68A3.1,3.1,0,0,0,23.36,9.58ZM18,23.63a5.58,5.58,0,1,1,5.58-5.58A5.59,5.59,0,0,1,18,23.63Zm5.76-10a1.32,1.32,0,1,1,1.32-1.31A1.32,1.32,0,0,1,23.76,13.62Zm-2.54,4.43A3.22,3.22,0,1,1,18,14.83,3.22,3.22,0,0,1,21.22,18.05ZM18,0A18,18,0,1,0,36,18,18,18,0,0,0,18,0ZM28.83,23.41a5.47,5.47,0,0,1-5.47,5.47H12.64a5.47,5.47,0,0,1-5.47-5.47V12.68a5.47,5.47,0,0,1,5.47-5.46H23.36a5.47,5.47,0,0,1,5.47,5.46Z"/></svg>