<?xml version="1.0" encoding="utf-8"?>
<svg id="Capa_1" data-name="Capa 1" xmlns="http://www.w3.org/2000/svg" viewBox="0 0 188.35 100"><defs><style>.cls-1{fill:#FFFFFF;}</style></defs><title>logo maskot header</title><path class="cls-1" d="M81.48,59.12a2.64,2.64,0,0,0,1.93,1.09,2.85,2.85,0,0,0,2.09-1,3,3,0,0,0,.92-2.11,16.68,16.68,0,0,0-.59-3,17.44,17.44,0,0,1-.6-4.42c0-1.5,0-2.87,0-4.1s0-2.72,0-4.48a18.84,18.84,0,0,0-1-6.72,6.66,6.66,0,0,0-3.39-3.7,15.3,15.3,0,0,0-6.6-1.17A14.39,14.39,0,0,0,68,30.81a8.65,8.65,0,0,0-3.7,3.08,7,7,0,0,0-1.19,3.86,2.86,2.86,0,0,0,.78,2.07,2.46,2.46,0,0,0,1.85.82,1.83,1.83,0,0,0,1.55-.51c.24-.34.65-1,1.24-2.11a6.51,6.51,0,0,1,2.09-2.39,6.7,6.7,0,0,1,3.65-.8c1.88,0,3.12.46,3.72,1.39a8.89,8.89,0,0,1,1,4.36q-2,.69-3.72,1.17c-1.14.32-2.51.68-4.11,1.06s-2.6.63-3,.74a8,8,0,0,0-4.55,2.92A8.44,8.44,0,0,0,62,51.73,9.13,9.13,0,0,0,63,56a7.81,7.81,0,0,0,2.85,3.1,8.05,8.05,0,0,0,4.3,1.14A10.92,10.92,0,0,0,75,59.15,19.55,19.55,0,0,0,79.45,56,16,16,0,0,0,81.48,59.12ZM79,46.17a13.34,13.34,0,0,1-.86,5.61,6,6,0,0,1-2.34,2.52,6.51,6.51,0,0,1-3.49,1,3.69,3.69,0,0,1-2.86-1.2,4.14,4.14,0,0,1-1.1-2.9,3.45,3.45,0,0,1,.93-2.57,4.86,4.86,0,0,1,2-1.24c.69-.21,1.92-.54,3.7-1A28.91,28.91,0,0,0,79,45.1Zm33,.54a6.92,6.92,0,0,1,1,3.67,10.54,10.54,0,0,1-1.28,5.33A8.2,8.2,0,0,1,108,59.07a14.65,14.65,0,0,1-6.09,1.14A12.83,12.83,0,0,1,96,59a8.86,8.86,0,0,1-3.61-3.1,7,7,0,0,1-1.17-3.73A3.18,3.18,0,0,1,92,50a2.4,2.4,0,0,1,1.89-.88,2,2,0,0,1,1.54.58,6.57,6.57,0,0,1,1,1.62,8,8,0,0,0,2.34,3,6.22,6.22,0,0,0,3.72,1,4.81,4.81,0,0,0,3.14-1,2.94,2.94,0,0,0,1.22-2.3,3.31,3.31,0,0,0-1.27-2.89,14.43,14.43,0,0,0-4.18-1.73,30.41,30.41,0,0,1-5.35-2,8.86,8.86,0,0,1-3.3-2.79,7.21,7.21,0,0,1-1.24-4.27,8.51,8.51,0,0,1,1.15-4.26A8.27,8.27,0,0,1,96,30.85a11.22,11.22,0,0,1,5.38-1.2,14.94,14.94,0,0,1,4.44.61,10.16,10.16,0,0,1,3.28,1.62,7.44,7.44,0,0,1,2,2.26,5.05,5.05,0,0,1,.68,2.42,3.07,3.07,0,0,1-.73,2.12,2.66,2.66,0,0,1-2.09.83,2.29,2.29,0,0,1-1.66-.66,11.93,11.93,0,0,1-1.58-2A6.09,6.09,0,0,0,104,35.1a4.68,4.68,0,0,0-2.65-.66,4.6,4.6,0,0,0-2.87.87,2.62,2.62,0,0,0-1.14,2.16,2.49,2.49,0,0,0,.84,1.94,6.45,6.45,0,0,0,2.26,1.25c.94.33,2.25.74,3.91,1.22a18.68,18.68,0,0,1,4.84,2A8.46,8.46,0,0,1,112.07,46.71ZM140.46,55a3.25,3.25,0,0,1,.31,1.33,4.42,4.42,0,0,1-.83,2.83,2.66,2.66,0,0,1-2.18,1,2.21,2.21,0,0,1-1.79-.75,17.33,17.33,0,0,1-1.7-2.69l-5.62-10.9-3.45,3.85v6a5.16,5.16,0,0,1-1,3.35A2.85,2.85,0,0,1,122,60.21a2.7,2.7,0,0,1-2.31-1.16,5.78,5.78,0,0,1-.84-3.41v-32a7.35,7.35,0,0,1,.82-3.82,2.59,2.59,0,0,1,2.33-1.3,2.72,2.72,0,0,1,2.33,1.18,5.94,5.94,0,0,1,.86,3.5V41.38l7.16-8.86a18.41,18.41,0,0,1,2-2.26,2.51,2.51,0,0,1,1.71-.61,2.53,2.53,0,0,1,2,.9,3.28,3.28,0,0,1,.79,2.24q0,1.65-2.59,4.4l-3.38,3.67L139.42,53C139.9,53.87,140.25,54.55,140.46,55Zm24.07-21.13a11.51,11.51,0,0,0-4-3.14,13,13,0,0,0-10.44,0,11.15,11.15,0,0,0-4,3.1,14.2,14.2,0,0,0-2.54,4.84,20.93,20.93,0,0,0-.88,6.25,20.69,20.69,0,0,0,.87,6.18A14.32,14.32,0,0,0,146.06,56a11.8,11.8,0,0,0,4,3.15,12,12,0,0,0,5.2,1.1,12.16,12.16,0,0,0,5.24-1.09,11.33,11.33,0,0,0,4-3.12,14.27,14.27,0,0,0,2.56-4.88,22.09,22.09,0,0,0,0-12.38A14,14,0,0,0,164.53,33.89Zm-4.67,18.16a5.29,5.29,0,0,1-4.6,2.57,5,5,0,0,1-3.32-1.17,7.31,7.31,0,0,1-2.17-3.37,15.73,15.73,0,0,1-.76-5.15,16,16,0,0,1,.77-5.2A7.13,7.13,0,0,1,152,36.36a5.06,5.06,0,0,1,3.29-1.15,5.3,5.3,0,0,1,4.6,2.56,12.83,12.83,0,0,1,1.71,7.16A12.77,12.77,0,0,1,159.86,52.05Zm28.49,4.41a3,3,0,0,1-1.67,2.78,9.75,9.75,0,0,1-4.83,1A7.32,7.32,0,0,1,177.33,59a5.54,5.54,0,0,1-2-3.27,26.8,26.8,0,0,1-.47-5.59V35.74H174A2.57,2.57,0,0,1,171.18,33a2.61,2.61,0,0,1,.76-1.94,3,3,0,0,1,2.2-.76h.7V25.8c0-1.21,0-2.16.08-2.85a4.7,4.7,0,0,1,.45-1.78,3.24,3.24,0,0,1,1.07-1.25,2.72,2.72,0,0,1,1.57-.48,3,3,0,0,1,2.19,1.07,3.36,3.36,0,0,1,.82,1.75,18.21,18.21,0,0,1,.18,2.93v5.12h2.33A2.54,2.54,0,0,1,186.3,33a2.25,2.25,0,0,1-1,2.12,5.74,5.74,0,0,1-2.9.61H181.2V49.56a26.83,26.83,0,0,0,.1,2.71,3.08,3.08,0,0,0,.56,1.54,1.78,1.78,0,0,0,1.48.59,7.09,7.09,0,0,0,1.52-.23,6.48,6.48,0,0,1,1.49-.24,1.84,1.84,0,0,1,1.39.73A2.71,2.71,0,0,1,188.35,56.46ZM50.13,72.73a6.16,6.16,0,0,0-3.69-1.22,5.47,5.47,0,0,0-3,.84A9.26,9.26,0,0,0,40.89,75v-.62a3.36,3.36,0,0,0-.58-2.13,1.83,1.83,0,0,0-1.51-.75,1.73,1.73,0,0,0-1.48.73,3.64,3.64,0,0,0-.54,2.19V96.57a6.48,6.48,0,0,0,.39,2.55,1.6,1.6,0,0,0,1.63.88c1.39,0,2.09-1.13,2.09-3.39V88.89a9.71,9.71,0,0,0,2.41,2.6,5.36,5.36,0,0,0,3.14.88,6,6,0,0,0,2.89-.72,7.06,7.06,0,0,0,2.34-2.07,10.66,10.66,0,0,0,1.55-3.34,15.68,15.68,0,0,0,.57-4.35,14.53,14.53,0,0,0-1-5.58A8.21,8.21,0,0,0,50.13,72.73Zm-1.27,12.7a5.13,5.13,0,0,1-1.48,2.23,3.18,3.18,0,0,1-2,.74,3.67,3.67,0,0,1-3-1.7,8.14,8.14,0,0,1-1.22-4.78A8.28,8.28,0,0,1,42.33,77a3.68,3.68,0,0,1,3-1.68,3.14,3.14,0,0,1,2.06.78,5.15,5.15,0,0,1,1.46,2.25,11.8,11.8,0,0,1,0,7.09ZM72.05,74.37a7.86,7.86,0,0,0-2.76-2.14,8.82,8.82,0,0,0-7.14,0,7.68,7.68,0,0,0-2.75,2.11,9.78,9.78,0,0,0-1.73,3.32,15.23,15.23,0,0,0,0,8.5,9.7,9.7,0,0,0,1.75,3.31,7.83,7.83,0,0,0,2.74,2.16,8.15,8.15,0,0,0,3.55.75,8.35,8.35,0,0,0,3.59-.74A7.88,7.88,0,0,0,72,89.49a9.79,9.79,0,0,0,1.75-3.33,14,14,0,0,0,.61-4.24,14.13,14.13,0,0,0-.6-4.23A9.81,9.81,0,0,0,72.05,74.37Zm-3.2,12.42a3.62,3.62,0,0,1-3.15,1.76,3.46,3.46,0,0,1-2.27-.8A5,5,0,0,1,62,85.44a10.65,10.65,0,0,1-.52-3.52A11,11,0,0,1,62,78.36a5,5,0,0,1,1.5-2.3,3.5,3.5,0,0,1,2.25-.78A3.61,3.61,0,0,1,68.85,77,8.73,8.73,0,0,1,70,81.92,8.73,8.73,0,0,1,68.85,86.79ZM89.74,74.43A2.21,2.21,0,0,1,89.19,76a1.59,1.59,0,0,1-1.19.61,4.68,4.68,0,0,1-1.15-.34,4.47,4.47,0,0,0-1.62-.35,2.1,2.1,0,0,0-1.56.59,3.86,3.86,0,0,0-.94,1.76A14.18,14.18,0,0,0,82.26,81c-.08,1.07-.12,2.38-.12,3.92v4.3a3.67,3.67,0,0,1-.63,2.34,1.92,1.92,0,0,1-1.57.78,1.86,1.86,0,0,1-1.55-.79,3.79,3.79,0,0,1-.61-2.33V74.94c0-2.31.71-3.47,2.12-3.47a1.68,1.68,0,0,1,1.57.81A5.2,5.2,0,0,1,82,74.67a8.89,8.89,0,0,1,1.61-2.39,3,3,0,0,1,2.19-.81,5,5,0,0,1,2.66.81A2.45,2.45,0,0,1,89.74,74.43Zm12.74,14.15a1.84,1.84,0,0,1,.42,1.23,2.06,2.06,0,0,1-1.15,1.9,6.68,6.68,0,0,1-3.3.66,5,5,0,0,1-3.09-.81A3.78,3.78,0,0,1,94,89.32a17.6,17.6,0,0,1-.33-3.82V75.63h-.57a1.75,1.75,0,0,1-1.93-1.86,1.79,1.79,0,0,1,.52-1.33,2.05,2.05,0,0,1,1.5-.52h.48V68.84q0-1.25.06-2A3.36,3.36,0,0,1,94,65.67a2.15,2.15,0,0,1,.73-.85,1.85,1.85,0,0,1,1.07-.33,2,2,0,0,1,1.5.73,2.32,2.32,0,0,1,.57,1.2,14.36,14.36,0,0,1,.11,2v3.5h1.6a1.86,1.86,0,0,1,1.41.52,1.9,1.9,0,0,1,.49,1.33,1.56,1.56,0,0,1-.7,1.45,3.85,3.85,0,0,1-2,.41H98v9.46a17,17,0,0,0,.08,1.85A2,2,0,0,0,98.46,88a1.19,1.19,0,0,0,1,.4,4.47,4.47,0,0,0,1-.16,4.33,4.33,0,0,1,1-.16A1.26,1.26,0,0,1,102.48,88.58Zm-66-31.66c-2,0-4.05,0-6.07,0a4.13,4.13,0,0,1-3.95-3c-1.2-3.17-2.48-6.31-3.84-9.76a55.08,55.08,0,0,0-1.67,7c-.35,1.46-.53,3-.89,4.42-.62,2.53-1.75,3.46-4.38,3.6-1.52.09-3,0-4.56,0-2.29,0-3.17-1-2.87-3.32C8.77,51.62,9.28,47.31,10,43c.85-5.39,1.53-10.81,2.84-16.12.73-3,2-4,5-4.11a26.57,26.57,0,0,0,3.22,0c2.77-.45,4.13,1,5.17,3.32,2.06,4.64,4.28,9.22,6.6,14.18a77.83,77.83,0,0,0,2.49-8.16c.64-2,1.15-4.11,1.64-6.19.72-3.07,2.76-4.68,5.71-5.35,2.26-.51,4.52-1,6.79-1.5,2.1-.43,3,.13,3.49,2.34,1.64,7.66,3.21,15.32,4.8,23Q59,50.29,60.19,56.17c.41,2,.07,2.67-1.94,3.1-3.37.71-6.8.33-10.19.23A2.77,2.77,0,0,1,45.58,57c-.51-3-1-5.92-1.5-8.89a6.29,6.29,0,0,0-.59-1.92A70.87,70.87,0,0,0,41,53.54C40.19,56.05,39.12,56.87,36.45,56.92Zm-2.27,20.4c1.28,4.52.79,7.42-4.42,9.94-3.12,1.5-6.57,1.62-9.94,1.89-2.52.2-5.05.12-7.57.36-1.87.18-2.42-.44-2.33-2.3.08-1.51.23-3,.4-4.52A1.9,1.9,0,0,1,12,80.79a19.13,19.13,0,0,1,3.37-.26c2.33-.1,4.63.56,7,.34.66-.07,1.6.21,1.61-.81S23.09,79,22.33,79a47.1,47.1,0,0,1-4.89-.36c-7.78-.87-8-6.33-5.23-11.26,1.2-2.18,3.33-3.4,5.56-4.38a30.29,30.29,0,0,1,11.41-2.21,2.77,2.77,0,0,1,3.17,2.73c.21,1.55.64,3.07,1,4.6a1.89,1.89,0,0,1-1.48,2.57,9,9,0,0,1-4.12.15,35.22,35.22,0,0,0-4.92-.21c-.6,0-1.17,0-1.23.82a1.24,1.24,0,0,0,.78,1.35c1.28.67,2.72.48,4.07.81a27.94,27.94,0,0,0,3.56.46A4.42,4.42,0,0,1,34.18,77.32ZM11.91,22.06c-5.52,0-5.6-.13-6.61-5.64-.26-1.41-.72-2.78-1-4.18a2.19,2.19,0,0,0-2-1.91C.65,10.31.3,9.3.08,8.18A3,3,0,0,1,1.34,4.87c1.4-.9,3-1.58,4.62-.74S7.51,6.49,7.27,8.07c-.2,1.37.64,2.71,1.82,2.66,1.4-.06.76-1.79,1-2.76.14-.54-.42-1.12-.78-1.65a3.57,3.57,0,0,1,0-4.24c.69-1,4-1.7,5.13-1.13,1.66.86,1.71,2.43,1.41,4A5.58,5.58,0,0,0,15.75,8c.22.56.55,1.3,1.26,1.21s.74-.8.85-1.35a4,4,0,0,0-.56-3.06c-1.05-1.74-.7-3.13.79-4.09,1.72-1.1,4.17-1,5.2.33a2.62,2.62,0,0,1,.08,3.46,4.8,4.8,0,0,0-.81,4.12c.3,1.1.94.89,1.45.25,1.23-1.55,2.29-3.16,1.6-5.34C25.13,2,25.86,1,27.3.46,29.47-.36,31.67.27,32.63,2c.84,1.46.2,2.43-.93,3.41-2.33,2-2.26,4.87-2.36,7.62,0,.81.17,1.62.22,2.44A3.16,3.16,0,0,1,27.14,19C22.15,20.44,17.21,22.14,11.91,22.06Zm87.17-7.9a3.67,3.67,0,0,1-.9-2.62,3.83,3.83,0,0,1,.91-2.73,3.09,3.09,0,0,1,2.38-1,2.9,2.9,0,0,1,2.1.76,2.75,2.75,0,0,1,.72,1.3l-1.4.33a1.55,1.55,0,0,0-.52-.86,1.53,1.53,0,0,0-1-.32,1.62,1.62,0,0,0-1.27.56,2.82,2.82,0,0,0-.49,1.83,3,3,0,0,0,.48,1.9,1.56,1.56,0,0,0,1.25.57,1.43,1.43,0,0,0,1-.36,2.05,2.05,0,0,0,.58-1.14l1.38.44a3.07,3.07,0,0,1-1,1.71,3,3,0,0,1-1.87.56A3,3,0,0,1,99.08,14.16Zm12.4.84h-5.35V8h5.22V9.15h-3.8v1.56h3.53V11.9h-3.53v1.92h3.93Zm7.4,0h-1.42l-2.84-4.59V15h-1.33V8h1.39l2.88,4.7V8h1.32Zm3.68-5.85h-2.09V8h5.6V9.15H124V15h-1.43ZM129,12.06h.29a2.42,2.42,0,0,1,.71.08,1.06,1.06,0,0,1,.43.29,9.19,9.19,0,0,1,.75,1l1,1.53h1.7l-.86-1.37a8.44,8.44,0,0,0-.81-1.15,3.39,3.39,0,0,0-.76-.59,2.19,2.19,0,0,0,1.39-.65,1.88,1.88,0,0,0,.47-1.31A2,2,0,0,0,133,8.82a1.58,1.58,0,0,0-.82-.67A5,5,0,0,0,130.58,8h-3v7H129Zm0-2.91h1.11c.58,0,.92,0,1,0a.83.83,0,0,1,.53.28.82.82,0,0,1,.19.57,1,1,0,0,1-.14.53.81.81,0,0,1-.4.3,5.26,5.26,0,0,1-1.28.09H129Zm9.39-1.31a3.78,3.78,0,0,0-1.52.28,2.58,2.58,0,0,0-.91.63,3.21,3.21,0,0,0-.66,1,4.53,4.53,0,0,0-.32,1.8,3.63,3.63,0,0,0,.93,2.64,3.71,3.71,0,0,0,5,0,3.67,3.67,0,0,0,.92-2.67,3.73,3.73,0,0,0-.93-2.69A3.31,3.31,0,0,0,138.4,7.84Zm1.41,5.45a1.79,1.79,0,0,1-1.4.62,1.81,1.81,0,0,1-1.4-.62,2.64,2.64,0,0,1-.55-1.82A2.68,2.68,0,0,1,137,9.66a1.8,1.8,0,0,1,1.42-.61,1.78,1.78,0,0,1,1.41.6,2.63,2.63,0,0,1,.53,1.81A2.68,2.68,0,0,1,139.81,13.29Zm7.54.87a3.63,3.63,0,0,1-.91-2.62,3.88,3.88,0,0,1,.91-2.73,3.11,3.11,0,0,1,2.39-1,2.93,2.93,0,0,1,2.1.76,2.75,2.75,0,0,1,.72,1.3l-1.41.33a1.45,1.45,0,0,0-.52-.86,1.48,1.48,0,0,0-1-.32,1.61,1.61,0,0,0-1.27.56,2.76,2.76,0,0,0-.49,1.83,3,3,0,0,0,.48,1.9,1.56,1.56,0,0,0,1.25.57,1.4,1.4,0,0,0,1-.36,2.06,2.06,0,0,0,.59-1.14l1.38.44a3.07,3.07,0,0,1-1.05,1.71,3.32,3.32,0,0,1-4.18-.4Zm8.26-.76h2.81L159,15h1.55l-2.82-7h-1.51l-2.74,7H155ZM157,9.6l1,2.61h-1.92Zm6.11,5.4h-1.32V8h1.38l2.89,4.7V8h1.32v7H166l-2.84-4.59Zm6.16-7h1.42v7h-1.42Zm4.55,7H172.5V8h1.38l2.89,4.7V8h1.32v7h-1.43l-2.84-4.59Zm9.34.12a3.28,3.28,0,0,0,2.48-1,3.68,3.68,0,0,0,.93-2.67,3.69,3.69,0,0,0-.94-2.69,3.31,3.31,0,0,0-2.49-1,3.82,3.82,0,0,0-1.52.28,2.58,2.58,0,0,0-.91.63,3.37,3.37,0,0,0-.65,1,4.36,4.36,0,0,0-.32,1.8,3.67,3.67,0,0,0,.92,2.64A3.31,3.31,0,0,0,183.16,15.12Zm-1.42-5.46a2,2,0,0,1,2.83,0,2.68,2.68,0,0,1,.53,1.81,2.63,2.63,0,0,1-.55,1.83,1.78,1.78,0,0,1-1.39.62,1.82,1.82,0,0,1-1.41-.62,2.69,2.69,0,0,1-.55-1.82A2.63,2.63,0,0,1,181.74,9.66Z"/></svg>