<?xml version="1.0" encoding="utf-8"?>
<svg id="Capa_1" data-name="Capa 1" xmlns="http://www.w3.org/2000/svg" viewBox="0 0 188.35 100"><defs><style>.cls-1{fill:#05b93c;}.cls-2{fill:#fff;}</style></defs><title>logo maskot footer</title><path class="cls-1" d="M81.48,59.12a2.64,2.64,0,0,0,1.93,1.09,2.85,2.85,0,0,0,2.09-1,3,3,0,0,0,.92-2.11,16.68,16.68,0,0,0-.59-3,17.44,17.44,0,0,1-.6-4.42c0-1.5,0-2.87,0-4.1s0-2.72,0-4.48a18.84,18.84,0,0,0-1-6.72,6.66,6.66,0,0,0-3.39-3.7,15.3,15.3,0,0,0-6.6-1.17A14.39,14.39,0,0,0,68,30.81a8.65,8.65,0,0,0-3.7,3.08,7,7,0,0,0-1.19,3.86,2.86,2.86,0,0,0,.78,2.07,2.46,2.46,0,0,0,1.85.82,1.83,1.83,0,0,0,1.55-.51c.24-.34.65-1,1.24-2.11a6.51,6.51,0,0,1,2.09-2.39,6.7,6.7,0,0,1,3.65-.8c1.88,0,3.12.46,3.72,1.39a8.89,8.89,0,0,1,1,4.36q-2,.69-3.72,1.17c-1.14.32-2.51.68-4.11,1.06s-2.6.63-3,.74a8,8,0,0,0-4.55,2.92A8.44,8.44,0,0,0,62,51.73,9.13,9.13,0,0,0,63,56a7.81,7.81,0,0,0,2.85,3.1,8.05,8.05,0,0,0,4.3,1.14A10.92,10.92,0,0,0,75,59.15,19.55,19.55,0,0,0,79.45,56,16,16,0,0,0,81.48,59.12ZM79,46.17a13.34,13.34,0,0,1-.86,5.61,6,6,0,0,1-2.34,2.52,6.51,6.51,0,0,1-3.49,1,3.69,3.69,0,0,1-2.86-1.2,4.14,4.14,0,0,1-1.1-2.9,3.45,3.45,0,0,1,.93-2.57,4.86,4.86,0,0,1,2-1.24c.69-.21,1.92-.54,3.7-1A28.91,28.91,0,0,0,79,45.1Z"/><path class="cls-1" d="M109.23,43.91a18.68,18.68,0,0,0-4.84-2c-1.66-.48-3-.89-3.91-1.22a6.45,6.45,0,0,1-2.26-1.25,2.49,2.49,0,0,1-.84-1.94,2.62,2.62,0,0,1,1.14-2.16,4.6,4.6,0,0,1,2.87-.87,4.68,4.68,0,0,1,2.65.66,6.09,6.09,0,0,1,1.7,1.76,11.93,11.93,0,0,0,1.58,2,2.29,2.29,0,0,0,1.66.66,2.66,2.66,0,0,0,2.09-.83,3.07,3.07,0,0,0,.73-2.12,5.05,5.05,0,0,0-.68-2.42,7.44,7.44,0,0,0-2-2.26,10.16,10.16,0,0,0-3.28-1.62,14.94,14.94,0,0,0-4.44-.61A11.22,11.22,0,0,0,96,30.85a8.27,8.27,0,0,0-3.36,3.21,8.51,8.51,0,0,0-1.15,4.26,7.21,7.21,0,0,0,1.24,4.27A8.86,8.86,0,0,0,96,45.38a30.41,30.41,0,0,0,5.35,2,14.43,14.43,0,0,1,4.18,1.73A3.31,3.31,0,0,1,106.84,52a2.94,2.94,0,0,1-1.22,2.3,4.81,4.81,0,0,1-3.14,1,6.22,6.22,0,0,1-3.72-1,8,8,0,0,1-2.34-3,6.57,6.57,0,0,0-1-1.62,2,2,0,0,0-1.54-.58A2.4,2.4,0,0,0,92,50a3.18,3.18,0,0,0-.75,2.12,7,7,0,0,0,1.17,3.73A8.86,8.86,0,0,0,96,59a12.83,12.83,0,0,0,5.88,1.24A14.65,14.65,0,0,0,108,59.07a8.2,8.2,0,0,0,3.79-3.36A10.54,10.54,0,0,0,113,50.38a6.92,6.92,0,0,0-1-3.67A8.46,8.46,0,0,0,109.23,43.91Z"/><path class="cls-1" d="M139.42,53l-6.53-12.11,3.38-3.67q2.59-2.74,2.59-4.4a3.28,3.28,0,0,0-.79-2.24,2.53,2.53,0,0,0-2-.9,2.51,2.51,0,0,0-1.71.61,18.41,18.41,0,0,0-2,2.26l-7.16,8.86V23.16a5.94,5.94,0,0,0-.86-3.5A2.72,2.72,0,0,0,122,18.48a2.59,2.59,0,0,0-2.33,1.3,7.35,7.35,0,0,0-.82,3.82v32a5.78,5.78,0,0,0,.84,3.41A2.7,2.7,0,0,0,122,60.21,2.85,2.85,0,0,0,124.24,59a5.16,5.16,0,0,0,1-3.35v-6l3.45-3.85,5.62,10.9a17.33,17.33,0,0,0,1.7,2.69,2.21,2.21,0,0,0,1.79.75,2.66,2.66,0,0,0,2.18-1,4.42,4.42,0,0,0,.83-2.83,3.25,3.25,0,0,0-.31-1.33C140.25,54.55,139.9,53.87,139.42,53Z"/><path class="cls-1" d="M164.53,33.89a11.51,11.51,0,0,0-4-3.14,13,13,0,0,0-10.44,0,11.15,11.15,0,0,0-4,3.1,14.2,14.2,0,0,0-2.54,4.84,20.93,20.93,0,0,0-.88,6.25,20.69,20.69,0,0,0,.87,6.18A14.32,14.32,0,0,0,146.06,56a11.8,11.8,0,0,0,4,3.15,12,12,0,0,0,5.2,1.1,12.16,12.16,0,0,0,5.24-1.09,11.33,11.33,0,0,0,4-3.12,14.27,14.27,0,0,0,2.56-4.88,22.09,22.09,0,0,0,0-12.38A14,14,0,0,0,164.53,33.89Zm-4.67,18.16a5.29,5.29,0,0,1-4.6,2.57,5,5,0,0,1-3.32-1.17,7.31,7.31,0,0,1-2.17-3.37,15.73,15.73,0,0,1-.76-5.15,16,16,0,0,1,.77-5.2A7.13,7.13,0,0,1,152,36.36a5.06,5.06,0,0,1,3.29-1.15,5.3,5.3,0,0,1,4.6,2.56,12.83,12.83,0,0,1,1.71,7.16A12.77,12.77,0,0,1,159.86,52.05Z"/><path class="cls-1" d="M187.74,54.66a1.84,1.84,0,0,0-1.39-.73,6.48,6.48,0,0,0-1.49.24,7.09,7.09,0,0,1-1.52.23,1.78,1.78,0,0,1-1.48-.59,3.08,3.08,0,0,1-.56-1.54,26.83,26.83,0,0,1-.1-2.71V35.74h1.19a5.74,5.74,0,0,0,2.9-.61,2.25,2.25,0,0,0,1-2.12,2.54,2.54,0,0,0-2.77-2.7H181.2V25.19a18.21,18.21,0,0,0-.18-2.93,3.36,3.36,0,0,0-.82-1.75A3,3,0,0,0,178,19.44a2.72,2.72,0,0,0-1.57.48,3.24,3.24,0,0,0-1.07,1.25,4.7,4.7,0,0,0-.45,1.78c-.06.69-.08,1.64-.08,2.85v4.51h-.7a3,3,0,0,0-2.2.76,2.61,2.61,0,0,0-.76,1.94A2.57,2.57,0,0,0,174,35.74h.84V50.16a26.8,26.8,0,0,0,.47,5.59,5.54,5.54,0,0,0,2,3.27,7.32,7.32,0,0,0,4.52,1.19,9.75,9.75,0,0,0,4.83-1,3,3,0,0,0,1.67-2.78A2.71,2.71,0,0,0,187.74,54.66Z"/><path class="cls-1" d="M50.13,72.73a6.16,6.16,0,0,0-3.69-1.22,5.47,5.47,0,0,0-3,.84A9.26,9.26,0,0,0,40.89,75v-.62a3.36,3.36,0,0,0-.58-2.13,1.83,1.83,0,0,0-1.51-.75,1.73,1.73,0,0,0-1.48.73,3.64,3.64,0,0,0-.54,2.19V96.57a6.48,6.48,0,0,0,.39,2.55,1.6,1.6,0,0,0,1.63.88c1.39,0,2.09-1.13,2.09-3.39V88.89a9.71,9.71,0,0,0,2.41,2.6,5.36,5.36,0,0,0,3.14.88,6,6,0,0,0,2.89-.72,7.06,7.06,0,0,0,2.34-2.07,10.66,10.66,0,0,0,1.55-3.34,15.68,15.68,0,0,0,.57-4.35,14.53,14.53,0,0,0-1-5.58A8.21,8.21,0,0,0,50.13,72.73Zm-1.27,12.7a5.13,5.13,0,0,1-1.48,2.23,3.18,3.18,0,0,1-2,.74,3.67,3.67,0,0,1-3-1.7,8.14,8.14,0,0,1-1.22-4.78A8.28,8.28,0,0,1,42.33,77a3.68,3.68,0,0,1,3-1.68,3.14,3.14,0,0,1,2.06.78,5.15,5.15,0,0,1,1.46,2.25,11.8,11.8,0,0,1,0,7.09Z"/><path class="cls-1" d="M72.05,74.37a7.86,7.86,0,0,0-2.76-2.14,8.82,8.82,0,0,0-7.14,0,7.68,7.68,0,0,0-2.75,2.11,9.78,9.78,0,0,0-1.73,3.32,15.23,15.23,0,0,0,0,8.5,9.7,9.7,0,0,0,1.75,3.31,7.83,7.83,0,0,0,2.74,2.16,8.15,8.15,0,0,0,3.55.75,8.35,8.35,0,0,0,3.59-.74A7.88,7.88,0,0,0,72,89.49a9.79,9.79,0,0,0,1.75-3.33,14,14,0,0,0,.61-4.24,14.13,14.13,0,0,0-.6-4.23A9.81,9.81,0,0,0,72.05,74.37Zm-3.2,12.42a3.62,3.62,0,0,1-3.15,1.76,3.46,3.46,0,0,1-2.27-.8A5,5,0,0,1,62,85.44a10.65,10.65,0,0,1-.52-3.52A11,11,0,0,1,62,78.36a5,5,0,0,1,1.5-2.3,3.5,3.5,0,0,1,2.25-.78A3.61,3.61,0,0,1,68.85,77,8.73,8.73,0,0,1,70,81.92,8.73,8.73,0,0,1,68.85,86.79Z"/><path class="cls-1" d="M88.45,72.28a5,5,0,0,0-2.66-.81,3,3,0,0,0-2.19.81A8.89,8.89,0,0,0,82,74.67a5.2,5.2,0,0,0-.52-2.39,1.68,1.68,0,0,0-1.57-.81c-1.41,0-2.12,1.16-2.12,3.47V89.25a3.79,3.79,0,0,0,.61,2.33,1.86,1.86,0,0,0,1.55.79,1.92,1.92,0,0,0,1.57-.78,3.67,3.67,0,0,0,.63-2.34V85c0-1.54,0-2.85.12-3.92a14.18,14.18,0,0,1,.47-2.78,3.86,3.86,0,0,1,.94-1.76,2.1,2.1,0,0,1,1.56-.59,4.47,4.47,0,0,1,1.62.35,4.68,4.68,0,0,0,1.15.34A1.59,1.59,0,0,0,89.19,76a2.21,2.21,0,0,0,.55-1.55A2.45,2.45,0,0,0,88.45,72.28Z"/><path class="cls-1" d="M101.53,88.08a4.33,4.33,0,0,0-1,.16,4.47,4.47,0,0,1-1,.16,1.19,1.19,0,0,1-1-.4,2,2,0,0,1-.38-1.06A17,17,0,0,1,98,85.09V75.63h.82a3.85,3.85,0,0,0,2-.41,1.56,1.56,0,0,0,.7-1.45,1.9,1.9,0,0,0-.49-1.33,1.86,1.86,0,0,0-1.41-.52H98v-3.5a14.36,14.36,0,0,0-.11-2,2.32,2.32,0,0,0-.57-1.2,2,2,0,0,0-1.5-.73,1.85,1.85,0,0,0-1.07.33,2.15,2.15,0,0,0-.73.85,3.36,3.36,0,0,0-.31,1.22q-.06.7-.06,2v3.08h-.48a2.05,2.05,0,0,0-1.5.52,1.79,1.79,0,0,0-.52,1.33,1.75,1.75,0,0,0,1.93,1.86h.57V85.5A17.6,17.6,0,0,0,94,89.32a3.78,3.78,0,0,0,1.38,2.24,5,5,0,0,0,3.09.81,6.68,6.68,0,0,0,3.3-.66,2.06,2.06,0,0,0,1.15-1.9,1.84,1.84,0,0,0-.42-1.23A1.26,1.26,0,0,0,101.53,88.08Z"/><path class="cls-1" d="M41,53.54a70.87,70.87,0,0,1,2.51-7.35,6.29,6.29,0,0,1,.59,1.92c.47,3,1,5.92,1.5,8.89a2.77,2.77,0,0,0,2.48,2.5c3.39.1,6.82.48,10.19-.23,2-.43,2.35-1.09,1.94-3.1Q59,50.28,57.72,44.39c-1.59-7.67-3.16-15.33-4.8-23-.48-2.21-1.39-2.77-3.49-2.34-2.27.47-4.53,1-6.79,1.5-3,.67-5,2.28-5.71,5.35-.49,2.08-1,4.15-1.64,6.19a77.83,77.83,0,0,1-2.49,8.16c-2.32-5-4.54-9.54-6.6-14.18-1-2.32-2.4-3.77-5.17-3.32a26.57,26.57,0,0,1-3.22,0c-3,.14-4.29,1.15-5,4.11C11.48,32.22,10.8,37.64,10,43c-.67,4.28-1.18,8.59-1.73,12.89-.3,2.33.58,3.32,2.87,3.32,1.52,0,3,0,4.56,0,2.63-.14,3.76-1.07,4.38-3.6.36-1.46.54-3,.89-4.42a55.08,55.08,0,0,1,1.67-7c1.36,3.45,2.64,6.59,3.84,9.76a4.13,4.13,0,0,0,3.95,3c2,.07,4,.06,6.07,0C39.12,56.87,40.19,56.05,41,53.54Z"/><path class="cls-1" d="M30,74.05a27.94,27.94,0,0,1-3.56-.46c-1.35-.33-2.79-.14-4.07-.81a1.24,1.24,0,0,1-.78-1.35c.06-.79.63-.83,1.23-.82a35.22,35.22,0,0,1,4.92.21,9,9,0,0,0,4.12-.15,1.89,1.89,0,0,0,1.48-2.57c-.35-1.53-.78-3-1-4.6a2.77,2.77,0,0,0-3.17-2.73A30.29,30.29,0,0,0,17.77,63c-2.23,1-4.36,2.2-5.56,4.38-2.72,4.93-2.55,10.39,5.23,11.26a47.1,47.1,0,0,0,4.89.36c.76,0,1.69.07,1.67,1.08s-.95.74-1.61.81c-2.35.22-4.65-.44-7-.34a19.13,19.13,0,0,0-3.37.26,1.9,1.9,0,0,0-1.72,1.9c-.17,1.5-.32,3-.4,4.52-.09,1.86.46,2.48,2.33,2.3,2.52-.24,5.05-.16,7.57-.36,3.37-.27,6.82-.39,9.94-1.89,5.21-2.52,5.7-5.42,4.42-9.94A4.42,4.42,0,0,0,30,74.05Z"/><path class="cls-1" d="M27.14,19a3.16,3.16,0,0,0,2.42-3.57c0-.82-.24-1.63-.22-2.44.1-2.75,0-5.6,2.36-7.62,1.13-1,1.77-1.95.93-3.41C31.67.27,29.47-.36,27.3.46,25.86,1,25.13,2,25.61,3.56c.69,2.18-.37,3.79-1.6,5.34-.51.64-1.15.85-1.45-.25a4.8,4.8,0,0,1,.81-4.12,2.62,2.62,0,0,0-.08-3.46c-1-1.29-3.48-1.43-5.2-.33-1.49,1-1.84,2.35-.79,4.09a4,4,0,0,1,.56,3.06c-.11.55-.25,1.28-.85,1.35S16,8.59,15.75,8a5.58,5.58,0,0,1,.14-3.13c.3-1.52.25-3.09-1.41-3.95-1.1-.57-4.44.1-5.13,1.13a3.57,3.57,0,0,0,0,4.24c.36.53.92,1.11.78,1.65-.26,1,.38,2.7-1,2.76-1.18,0-2-1.29-1.82-2.66C7.51,6.49,7.59,5,6,4.13S2.74,4,1.34,4.87A3,3,0,0,0,.08,8.18C.3,9.3.65,10.31,2.22,10.33a2.19,2.19,0,0,1,2,1.91c.31,1.4.77,2.77,1,4.18,1,5.51,1.09,5.6,6.61,5.64C17.21,22.14,22.15,20.44,27.14,19Z"/><path class="cls-2" d="M101.39,15.12a3,3,0,0,0,1.87-.56,3.07,3.07,0,0,0,1-1.71l-1.38-.44a2.05,2.05,0,0,1-.58,1.14,1.43,1.43,0,0,1-1,.36,1.56,1.56,0,0,1-1.25-.57,3,3,0,0,1-.48-1.9,2.82,2.82,0,0,1,.49-1.83,1.62,1.62,0,0,1,1.27-.56,1.53,1.53,0,0,1,1,.32,1.55,1.55,0,0,1,.52.86l1.4-.33a2.75,2.75,0,0,0-.72-1.3,2.9,2.9,0,0,0-2.1-.76,3.09,3.09,0,0,0-2.38,1,3.83,3.83,0,0,0-.91,2.73,3.67,3.67,0,0,0,.9,2.62A3,3,0,0,0,101.39,15.12Z"/><polygon class="cls-2" points="111.48 13.81 107.55 13.81 107.55 11.9 111.08 11.9 111.08 10.71 107.55 10.71 107.55 9.15 111.35 9.15 111.35 7.96 106.13 7.96 106.13 15 111.48 15 111.48 13.81"/><polygon class="cls-2" points="118.88 7.96 117.56 7.96 117.56 12.66 114.68 7.96 113.3 7.96 113.3 15 114.62 15 114.62 10.41 117.46 15 118.88 15 118.88 7.96"/><polygon class="cls-2" points="122.56 15 123.99 15 123.99 9.15 126.07 9.15 126.07 7.96 120.47 7.96 120.47 9.15 122.56 9.15 122.56 15"/><path class="cls-2" d="M129,12.06h.29a2.42,2.42,0,0,1,.71.08,1.06,1.06,0,0,1,.43.29,9.19,9.19,0,0,1,.75,1l1,1.53h1.7l-.86-1.37a8.44,8.44,0,0,0-.81-1.15,3.39,3.39,0,0,0-.76-.59,2.19,2.19,0,0,0,1.39-.65,1.88,1.88,0,0,0,.47-1.31A2,2,0,0,0,133,8.82a1.58,1.58,0,0,0-.82-.67A5,5,0,0,0,130.58,8h-3v7H129Zm0-2.91h1.11c.58,0,.92,0,1,0a.83.83,0,0,1,.53.28.82.82,0,0,1,.19.57,1,1,0,0,1-.14.53.81.81,0,0,1-.4.3,5.26,5.26,0,0,1-1.28.09H129Z"/><path class="cls-2" d="M138.4,7.84a3.78,3.78,0,0,0-1.52.28,2.58,2.58,0,0,0-.91.63,3.21,3.21,0,0,0-.66,1,4.53,4.53,0,0,0-.32,1.8,3.63,3.63,0,0,0,.93,2.64,3.71,3.71,0,0,0,5,0,3.67,3.67,0,0,0,.92-2.67,3.73,3.73,0,0,0-.93-2.69A3.31,3.31,0,0,0,138.4,7.84Zm1.41,5.45a1.79,1.79,0,0,1-1.4.62,1.81,1.81,0,0,1-1.4-.62,2.64,2.64,0,0,1-.55-1.82A2.68,2.68,0,0,1,137,9.66a1.8,1.8,0,0,1,1.42-.61,1.78,1.78,0,0,1,1.41.6,2.63,2.63,0,0,1,.53,1.81A2.68,2.68,0,0,1,139.81,13.29Z"/><path class="cls-2" d="M149.65,15.12a3,3,0,0,0,1.88-.56,3.07,3.07,0,0,0,1.05-1.71l-1.38-.44a2.06,2.06,0,0,1-.59,1.14,1.4,1.4,0,0,1-1,.36,1.56,1.56,0,0,1-1.25-.57,3,3,0,0,1-.48-1.9,2.76,2.76,0,0,1,.49-1.83,1.61,1.61,0,0,1,1.27-.56,1.48,1.48,0,0,1,1,.32,1.45,1.45,0,0,1,.52.86l1.41-.33a2.75,2.75,0,0,0-.72-1.3,2.93,2.93,0,0,0-2.1-.76,3.11,3.11,0,0,0-2.39,1,3.88,3.88,0,0,0-.91,2.73,3.63,3.63,0,0,0,.91,2.62A3,3,0,0,0,149.65,15.12Z"/><path class="cls-2" d="M155.61,13.4h2.81L159,15h1.55l-2.82-7h-1.51l-2.74,7H155ZM157,9.6l1,2.61h-1.92Z"/><polygon class="cls-2" points="163.11 10.41 165.95 15 167.38 15 167.38 7.96 166.06 7.96 166.06 12.66 163.17 7.96 161.79 7.96 161.79 15 163.11 15 163.11 10.41"/><rect class="cls-2" x="169.27" y="7.96" width="1.42" height="7.05"/><polygon class="cls-2" points="173.82 10.41 176.66 15 178.09 15 178.09 7.96 176.76 7.96 176.76 12.66 173.88 7.96 172.5 7.96 172.5 15 173.82 15 173.82 10.41"/><path class="cls-2" d="M183.16,15.12a3.28,3.28,0,0,0,2.48-1,3.68,3.68,0,0,0,.93-2.67,3.69,3.69,0,0,0-.94-2.69,3.31,3.31,0,0,0-2.49-1,3.82,3.82,0,0,0-1.52.28,2.58,2.58,0,0,0-.91.63,3.37,3.37,0,0,0-.65,1,4.36,4.36,0,0,0-.32,1.8,3.67,3.67,0,0,0,.92,2.64A3.31,3.31,0,0,0,183.16,15.12Zm-1.42-5.46a2,2,0,0,1,2.83,0,2.68,2.68,0,0,1,.53,1.81,2.63,2.63,0,0,1-.55,1.83,1.78,1.78,0,0,1-1.39.62,1.82,1.82,0,0,1-1.41-.62,2.69,2.69,0,0,1-.55-1.82A2.63,2.63,0,0,1,181.74,9.66Z"/></svg>