<?xml version="1.0" encoding="utf-8"?>
<svg id="Capa_1" data-name="Capa 1" xmlns="http://www.w3.org/2000/svg" viewBox="0 0 30.53 20"><defs><style>.cls-1{fill:#009b51;}.cls-2{fill:#f5f5f5;}.cls-3{fill:#ea2d3f;}.cls-4{fill:#ffd250;}.cls-5{fill:#00c3a0;}.cls-6{fill:#00aadc;}.cls-7{fill:#732d37;}.cls-8{fill:#aad264;}.cls-9{fill:#874150;}.cls-10{fill:#783c46;}.cls-11{fill:#ffe15a;}.cls-12{fill:#ffb478;}.cls-13{fill:#9b4b5a;}</style></defs><title>mexico</title><path class="cls-1" d="M2.29,0A2.28,2.28,0,0,0,0,2.29V17.71A2.28,2.28,0,0,0,2.29,20h7.89V0Z"/><rect class="cls-2" x="10.18" width="10.18" height="20"/><path class="cls-3" d="M28.24,0H20.35V20h7.89a2.29,2.29,0,0,0,2.29-2.29V2.29A2.29,2.29,0,0,0,28.24,0Z"/><polygon class="cls-4" points="16.17 10.47 15.26 10.92 15.26 11.38 15.72 11.38 16.17 10.47"/><path class="cls-5" d="M15.26,12.51a.22.22,0,0,1-.22-.22v-.91a.23.23,0,1,1,.45,0v.91A.22.22,0,0,1,15.26,12.51Z"/><path class="cls-5" d="M15.26,11.61a3.57,3.57,0,0,1-2.42-1,.23.23,0,0,1,.31-.34,3.06,3.06,0,0,0,4.23,0,.22.22,0,0,1,.32,0,.23.23,0,0,1,0,.32A3.59,3.59,0,0,1,15.26,11.61Z"/><path class="cls-6" d="M15.26,12.51A3,3,0,0,1,13.63,12l.25-.38a2.51,2.51,0,0,0,2.76,0l.25.38A2.94,2.94,0,0,1,15.26,12.51Z"/><polygon class="cls-7" points="14.9 9.45 14.4 10.22 14.32 10.48 15.62 10.18 14.9 9.45"/><path class="cls-8" d="M13.87,10.73c-.6,0-1.32-.51-1.51-1.63L12.81,9c.16.94.74,1.26,1.08,1.26.11,0,.22,0,.23-.12s0-.11-.23-.19a.8.8,0,0,1-.38-.21c-.41-.47.15-1,.42-1.22.05,0,.07-.08.06-.09a.23.23,0,0,0-.2-.1.55.55,0,0,1-.57-.42.61.61,0,0,1,.29-.68l.21.4a.16.16,0,0,0-.06.17s0,.08.13.08a.67.67,0,0,1,.63.39.53.53,0,0,1-.19.59c-.3.27-.47.47-.38.58a.57.57,0,0,0,.19.08c.2.07.58.2.53.67a.63.63,0,0,1-.67.52Z"/><path class="cls-9" d="M15.72,8.2a1,1,0,0,0-.46-1.36s3.18-.45,2.73,3.63h0a3.5,3.5,0,0,1-.9-1l-1.37-.79V8.2Z"/><path class="cls-7" d="M15.26,9.11l2.27,1.36-.91.45L15.26,9.56Z"/><path class="cls-10" d="M14.36,7.75h0a.45.45,0,0,1,.45.45h0a.9.9,0,0,0-.17,1l.1.2a1,1,0,0,0,.17.24l1.26,1.25V10.3a5,5,0,0,0-.53-2.25h0a1.37,1.37,0,0,0-1.22-.76h-.06v.46Z"/><path class="cls-4" d="M14.36,7.29l-.46.46V8.2l.72-.36a.16.16,0,0,0,0-.27C14.6,7.51,14.36,7.29,14.36,7.29Z"/><path class="cls-8" d="M15.26,13.42a3.86,3.86,0,0,1-3.85-3.86h.45a3.41,3.41,0,1,0,6.81,0h.45A3.86,3.86,0,0,1,15.26,13.42Z"/><circle class="cls-11" cx="11.88" cy="10.91" r="0.31"/><circle class="cls-11" cx="12.56" cy="12" r="0.31"/><circle class="cls-11" cx="13.67" cy="12.82" r="0.31"/><circle class="cls-11" cx="18.68" cy="10.91" r="0.31"/><circle class="cls-11" cx="17.99" cy="12" r="0.31"/><circle class="cls-11" cx="16.89" cy="12.82" r="0.31"/><path class="cls-12" d="M15.49,12.74H15a.46.46,0,0,1-.46-.45h0a.47.47,0,0,1,.46-.46h.45a.46.46,0,0,1,.45.46h0A.45.45,0,0,1,15.49,12.74Z"/><path class="cls-13" d="M17.09,9.45a1.66,1.66,0,0,0,.9,1h0c.45-4.08-2.73-3.63-2.73-3.63C17.53,6.84,17.09,9.45,17.09,9.45Z"/></svg>