<?xml version="1.0" encoding="utf-8"?>
<svg xmlns="http://www.w3.org/2000/svg" viewBox="0 0 131 126"><defs><style>.cls-1{isolation:isolate;}.cls-2{fill:#f1f1f1;}.cls-3{fill:none;stroke:#192326;stroke-miterlimit:10;stroke-width:0.45px;}.cls-4{fill:#e8e8e8;}.cls-5{fill:#614c40;}.cls-6{fill:#d8e1e4;mix-blend-mode:multiply;}.cls-7{fill:#131413;}.cls-8{fill:#ccc;}.cls-9{fill:#05b93c;}.cls-10{fill:#192326;}.cls-11{fill:#20b64b;}.cls-12{fill:#fff;}.cls-13{fill:#1a953e;}.cls-14{fill:#f1d7b9;}.cls-15{fill:#dfe2e2;}.cls-16{fill:#2b3a40;}.cls-17{fill:#f2f2f2;}</style></defs><title>Servicio 3</title><g class="cls-1"><g id="Capa_1" data-name="Capa 1"><path class="cls-2" d="M.29,67.62C3.9,94.77,18.61,99.22,38.8,113.2s49.81,26.53,76.61-19.81c11.25-19.46,26.79-35.85,3.47-64.27S75,11.92,51.08,20.35-3.31,40.46.29,67.62Z"/><path class="cls-3" d="M85.63,66.76s-16.63-6.84-21-20"/><polygon class="cls-4" points="91.75 57.63 92.47 59.38 92.47 62.05 94.86 63.46 95.54 64.72 99.9 67.47 99.9 68.19 98.21 69.64 97.21 70.04 91.28 68.31 90.11 68.43 87.97 70.82 86.5 74.92 86.66 76.6 86.89 77.8 86.78 80.47 87.11 81.83 93.59 89 97.49 92.28 99.46 92.87 100.32 94.81 97.02 94.81 96.13 93.38 93.67 91.81 92.71 91.84 83.03 83.5 82.86 82.56 82.19 81.97 80.08 82.77 77.75 89.66 77.75 90.41 73.46 94.81 72.44 94.65 72.44 92.4 74.13 91.98 75.53 90.81 75.18 90.27 75.97 86.09 76 82.7 73.89 82.44 68.76 79.81 68.59 83.35 66.7 87.57 66.7 89.82 69.3 93.48 71.05 93.52 72.08 94.81 71.92 95.77 69.46 95.77 64.94 92.12 63.27 91.16 63.27 90.08 64.16 85.77 61.73 81.18 58.28 84.67 51.07 88.32 46.71 94.04 45.68 95.16 44.46 95.12 44.13 92.58 45.96 92.07 48.07 88.13 48.3 86.33 49.56 85.46 50.62 85.37 53.71 81.74 55.17 77.19 56.48 73.94 58.59 71.22 56.81 69.22 56.85 68.36 57.93 68.33 59.81 69.86 69.86 69.39 77.92 68.26 82.51 66.39 87.67 62.83 89.31 62.08 91.18 58.7 91.75 57.63"/><path class="cls-5" d="M44.13,92.59l0,.22,2.12-.37,3.94-5.06,8.08-3,0,.28,0,0,3.45-3.48,2.43,4.59-.89,4.31v1.08l1.67,1,1.44,1.18-1.6-2.16-.25-3.06,2.93-2.21,1.13-2.51.17-3.54,5.13,2.63L76,82.7l0,2.39,1.11.29.25,2.5.86.46,1.88-5.57,2.1-.8.68.58.17.94,7.09,6.12,1.22-.17,3.26.41-1-.85-6.48-7.17-.33-1.36.11-2.67-.23-1.2-.17-1.68L88,70.82l2.14-2.39h0L92.26,67l3.49-.71,2.65.21-2.86-1.8-.68-1.26-2.39-1.41V59.38l-.73-1.76-.56,1.08-1.87,3.38-1.64.74-5.16,3.57-4.59,1.87-8.06,1.13-10.06.47-1.87-1.53-1.08,0-.05.86,1.78,2-2.1,2.71-1.31,3.26-1.46,4.55-3.09,3.63-1.06.09-1.26.87-.24,1.8L46,92.07ZM93.57,63.64l.69-.1.48.34.11.56Z"/><polygon class="cls-6" points="82.19 81.97 82.87 82.56 83.03 83.49 92.71 91.84 93.67 91.81 96.13 93.38 97.02 94.81 100.32 94.81 99.46 92.87 97.49 92.28 93.6 89 87.11 81.83 86.78 80.47 86.89 77.8 86.66 76.61 86.5 74.92 85.73 79.14 82.19 81.97"/><polygon class="cls-6" points="64.17 85.77 63.27 90.08 63.27 91.16 64.94 92.12 69.46 95.78 71.92 95.78 72.08 94.81 71.05 93.53 69.3 93.48 66.7 89.82 66.7 87.57 68.6 83.36 68.76 79.81 65.81 78.45 61.73 81.18 64.17 85.77"/><polygon class="cls-7" points="99.63 67.53 99.63 68.18 99.01 68.71 98.69 67.61 99.03 67.15 99.63 67.53"/><polygon class="cls-8" points="97.46 69.59 93.71 68.15 93.95 68.6 97.46 69.59"/><polygon class="cls-9" points="83.86 64.99 89.18 70.1 88.29 70.99 82.73 65.92 83.86 64.99"/><rect class="cls-10" x="56.13" y="87.56" width="5.3" height="5.89" transform="translate(-11.86 8.92) rotate(-7.88)"/><path class="cls-11" d="M55.78,91.37l.13,3.44a2.9,2.9,0,0,0,.3,1L69.14,94c-.28-2.73-2-3.41-3.8-3.48l-3.85,0a2.71,2.71,0,0,1-5.28.74Z"/><rect class="cls-12" x="55.5" y="94" width="14.11" height="1.03" transform="translate(-12.36 9.46) rotate(-7.88)"/><rect class="cls-10" x="33.03" y="85.64" width="5.89" height="5.31" transform="translate(-59.23 93.39) rotate(-70.9)"/><path class="cls-13" d="M38.92,93.49l5.17,0c-.27-2-1.69-2.75-3.26-3l-1.66-.19Z"/><path class="cls-13" d="M31.28,91.84l7.33,2.54.38-.84,1.32-3-2-1a2.7,2.7,0,0,1-5-1.74l-.42-.15-1.45,3.12,0,.11A2.69,2.69,0,0,0,31.28,91.84Z"/><polygon class="cls-12" points="38.57 94.49 44.61 94.47 44.6 93.44 44.09 93.44 38.92 93.49 38.57 94.49 38.57 94.49"/><polygon class="cls-12" points="30.68 91.76 38.57 94.49 38.61 94.38 38.99 93.54 31.43 90.92 31.02 90.78 30.68 91.76"/><path class="cls-14" d="M60.37,44.61a3.19,3.19,0,1,0,4.05-2A3.19,3.19,0,0,0,60.37,44.61Z"/><path class="cls-15" d="M51.05,35.84A3.7,3.7,0,0,0,56.14,37h0A3.7,3.7,0,0,0,57.33,32L49,18.46a3.69,3.69,0,0,0-5.09-1.19h0a3.69,3.69,0,0,0-1.19,5.09Z"/><path class="cls-15" d="M50.71,32.72A3.71,3.71,0,0,0,51,35.83v0l.27.38.13.15,8.42,10.46,5.86-4.52-8.5-10.55-.15-.19a3.69,3.69,0,0,0-6.37,1.14Z"/><path class="cls-14" d="M41.18,8.34a7.4,7.4,0,1,0,7.4-7.4A7.4,7.4,0,0,0,41.18,8.34Z"/><path class="cls-5" d="M41.81,11.64a2.29,2.29,0,0,0,.52,0,4.65,4.65,0,0,0,2.12-.53,8.28,8.28,0,0,0,1.16-.91,1.67,1.67,0,0,1-.48-2.18,1.35,1.35,0,0,1,1.52-.76,1,1,0,0,1,.94,1c.22-.06.42-.12.63-.16-.11-.49-.17-1-.25-1.46a5.69,5.69,0,0,0,2.16-.43,1.94,1.94,0,0,1-1.22-.84,5.43,5.43,0,0,1,1.76-.07,4.08,4.08,0,0,0,.91-.18,3,3,0,0,0,.79-.33,6.7,6.7,0,0,0,1.92-1.56A4.6,4.6,0,0,0,55.48.88a6,6,0,0,1-1.84,1.19A2.26,2.26,0,0,0,53.75.12c-.63.81-2.64.43-3.47.18a4.32,4.32,0,0,0-4.34.61A2.89,2.89,0,0,0,43,2.25c-.47.64-.66,1.53-1.38,2a.94.94,0,0,0,.5.5A6.35,6.35,0,0,0,41.81,11.64Z"/><polygon class="cls-10" points="42.74 50.42 40.47 67.87 32.96 86.22 39.62 88.63 48.48 70.63 54.36 50.42 42.74 50.42"/><polygon class="cls-16" points="55.11 50.42 59.74 70.49 62.01 89.05 55.11 89.9 50.25 68.51 43.48 55.03 42.74 50.42 55.11 50.42"/><path class="cls-9" d="M52.38,15.8,40.56,11.13l1.11,3.68s-3.75,1-3.09,10.3,1.8,25.31,1.8,25.31H55.11s2.27-2.27,2.17-8S50.77,17,50.77,17Z"/><path class="cls-17" d="M41.62,37.12A3.93,3.93,0,0,0,45.54,41h0a3.92,3.92,0,0,0,3.91-3.92V20.33a3.92,3.92,0,0,0-3.91-3.92h0a3.93,3.93,0,0,0-3.92,3.92Z"/><path class="cls-14" d="M44.26,52.81a3.19,3.19,0,1,0,3.19-3.19A3.19,3.19,0,0,0,44.26,52.81Z"/><path class="cls-17" d="M41.62,37.15a3.87,3.87,0,0,0,0,.48l1.83,14.63,7.79-.69L49.43,36.65a3.92,3.92,0,0,0-7.81.5Z"/><path class="cls-10" d="M62.89,47.72a10.15,10.15,0,0,0-1.4,3.44,11,11,0,0,1-.54,3c-.32.68-1.14,1-1.56.16s.15-2.11.48-3a12.89,12.89,0,0,1,2.26-4.13c.18-.2.9.35.76.51a13.69,13.69,0,0,0-2.84,6,2.2,2.2,0,0,0-.06.37c-.06.48,0,0-.11.1a3.61,3.61,0,0,0,.76-2.4,9.48,9.48,0,0,1,1.49-4.54c.12-.2.89.29.76.51Z"/></g></g></svg>