<?xml version="1.0" encoding="utf-8"?>
<svg xmlns="http://www.w3.org/2000/svg" viewBox="0 0 131 126"><defs><style>.cls-1{isolation:isolate;}.cls-2{fill:#f1f1f1;}.cls-3{fill:#cd8f33;}.cls-4{fill:#b9812e;}.cls-5{fill:#c8ab84;}.cls-5,.cls-6{mix-blend-mode:multiply;}.cls-6{fill:#ddc59c;}.cls-7{fill:#333;}.cls-10,.cls-8{fill:#05b93c;}.cls-9{fill:#f1d7b9;}.cls-10,.cls-9{fill-rule:evenodd;}</style></defs><title>Servicio 1</title><g class="cls-1"><g id="Capa_1" data-name="Capa 1"><path class="cls-2" d="M11.05,87.19c-8.67-21-22-39.51,5.13-64.87S62.46,11,85.29,22.61s51.82,27.44,44.58,54.17S107.28,106,85.17,117.3,31.7,137.22,11.05,87.19Z"/><polygon class="cls-3" points="35.78 94.02 41.24 96 71.16 96 71.16 94.51 70.19 91.98 67.34 91.33 64.66 92.07 58.15 90.53 66.86 85.48 67.42 82.39 65.96 79.06 67.5 77.76 70.73 75.06 71.59 85.13 73.81 91.26 73.11 91.69 74.08 92.23 74.08 93.26 74.84 93.26 75.49 96 85.37 96 85.56 95.24 84.5 93.13 83.69 93.13 81.33 92.48 78.73 84.26 79.46 65.15 82.84 59.01 83.74 52.74 82.06 49.45 81.5 42.62 78.08 38.56 78.97 36.28 80.19 36.68 80.6 35.38 81.98 35.38 80.38 29.47 80.43 29.08 86.56 28.5 90.03 25.52 89.92 24.65 91.98 20.8 91.98 17.74 90.41 17.67 83.69 17.36 80 14.46 76.69 14.46 77.13 12.78 73.14 6 72.14 6.89 72.24 8.26 70.81 6.94 70.01 8.81 70.54 14.75 69.1 15.68 68 18.47 66.53 20.59 66.37 24.16 63.52 29.62 63.46 29.75 63.44 29.81 62.19 32.45 62.19 32.46 61.08 37.18 54.74 43.36 50.77 52.78 46.72 67.02 39.97 72.55 36.15 79.55 36.26 88.41 35.78 94.02"/><polygon class="cls-4" points="17.03 91.88 17.03 96 41.24 96 35.78 94.02 36.26 88.41 31.13 86.86 25.22 88.62 22.49 88 17.03 91.88"/><polygon class="cls-5" points="70.02 8.81 70.54 14.75 72.63 13.4 72.24 8.26 70.81 6.94 70.02 8.81"/><polygon class="cls-6" points="47.9 77.92 58.63 74.09 62.86 75.15 65.96 79.06 67.5 77.76 63.1 73.61 57.49 72.55 47.9 77.92"/><polygon class="cls-6" points="71.59 85.13 73.81 91.26 73.11 91.69 74.08 92.23 74.08 93.26 74.84 93.26 75.49 96 77.32 96 73.14 84.83 71.98 74.02 70.73 75.06 71.59 85.13"/><polygon class="cls-7" points="89.59 18.02 90.61 20.37 91.54 20.81 91.54 18.09 89.59 18.02"/><polygon class="cls-6" points="71.98 74.02 69.74 69.87 69.17 64.26 68.43 70.27 70.73 75.06 71.98 74.02"/><polygon class="cls-6" points="35.78 94.02 41.24 96 58.99 96 47.6 94.91 41.91 90.93 42.28 90.03 41.66 90.03 41.66 89.06 40.2 89.34 37.23 79.75 41.87 74.38 47.2 68.77 47.48 68.77 47.68 68.16 48.26 68.16 47.9 67.02 53.5 52.55 57.7 43.68 64.81 37.33 65.3 38.31 65.7 36.28 66.5 36.28 66.56 35.84 65.3 33.79 66.8 30.9 67.2 30.78 68.39 30.42 70.02 29.7 68.79 28.88 69.69 27.82 67.89 27.82 67.89 21.72 68.44 20.97 69.1 15.68 68 18.47 66.53 20.59 66.37 24.16 63.52 29.62 63.46 29.75 63.43 29.81 62.19 32.45 62.19 32.46 61.08 37.18 54.74 43.36 50.78 52.79 46.72 67.02 39.97 72.55 36.15 79.55 36.26 88.41 35.78 94.02"/><polygon class="cls-8" points="61.42 32.31 78.76 38.96 79.73 36.48 62.88 29.22 62.81 29.36 62.77 29.44 61.43 32.3 61.42 32.31"/><path class="cls-7" d="M78.42,18a.95.95,0,1,0,.94-.94A.94.94,0,0,0,78.42,18Z"/><path class="cls-9" d="M83.41,33.63a30.67,30.67,0,0,1,4.25.72c2.06-.12,3.46-.24,5.53-.21,1.26-.85,2.69-1.79,4-2.57,1.08-.64,2-1.13,3-1.78.47-.33.91-.8,1.48-1.29q1.81-1.53,3.61-3.08l-3.13-2.76c-1.16,1.55-2.23,2.9-3.5,4.36-3.47-.55-3.76-.6-6.72,1.31-1,.51-4,.44-3.63,1.53.25.85,1.6.3,2.9.07,1-.11,2-.58,1.46.57-.38.78-.94.87-2,1.58a8.44,8.44,0,0,0-3.25.76C85,32.55,84.1,32.52,83.41,33.63Z"/><path class="cls-10" d="M101.77,30.21,98.5,26.42c4.3-5.61,5.77-8.4,10-12.79l5.43,6C108.55,23.3,106.45,25.61,101.77,30.21Z"/></g></g></svg>