<?xml version="1.0" encoding="utf-8"?>
<svg xmlns="http://www.w3.org/2000/svg" viewBox="0 0 131 126"><defs><style>.cls-1{isolation:isolate;}.cls-2{fill:#f1f1f1;}.cls-3{fill:#a2adb1;}.cls-4{fill:#e3f5f9;}.cls-5{fill:#05b93c;}.cls-6{fill:#d3d4d8;mix-blend-mode:multiply;}.cls-7{fill:#614c40;}.cls-8{fill:#2b3a40;}</style></defs><title>Servicio 2</title><g class="cls-1"><g id="Capa_1" data-name="Capa 1"><path class="cls-2" d="M130.71,69.28C127.1,42.13,112.39,37.68,92.2,23.7S42.39-2.83,15.59,43.51C4.34,63-11.2,79.36,12.12,107.78S56,125,79.92,116.55,134.31,96.44,130.71,69.28Z"/><polygon class="cls-3" points="28.74 41.51 28.74 93.53 103.57 93.53 103.57 42.56 66.16 10.11 28.74 41.51"/><rect class="cls-4" x="27.64" y="80.68" width="77.03" height="15.32"/><rect class="cls-4" x="27.64" y="63.76" width="77.03" height="15.31"/><rect class="cls-4" x="27.64" y="46.83" width="77.03" height="15.3"/><polygon class="cls-4" points="104.05 45.2 28.26 45.2 46.26 29.89 86.05 29.89 104.05 45.2"/><polygon class="cls-4" points="84.15 28.27 48.16 28.27 66.16 12.96 84.15 28.27"/><polygon class="cls-5" points="113.34 47.19 110.67 50.84 104.05 45.2 86.05 29.89 84.15 28.27 66.16 12.96 48.16 28.27 46.26 29.89 28.26 45.2 21.64 50.84 19.02 47.14 27.64 39.62 38.79 29.89 40.64 28.27 58.18 12.96 66.16 6 74.14 12.96 91.68 28.27 93.53 29.89 104.68 39.63 113.34 47.19"/><polygon class="cls-6" points="104.7 46.83 104.7 59.51 103.6 58.57 89.8 46.83 87.89 45.2 87.08 44.51 85.18 42.89 69.9 29.89 68 28.27 67.19 27.57 66.37 28.27 64.47 29.89 49.19 42.89 47.29 44.51 46.47 45.2 44.56 46.83 29.29 59.83 28.78 60.27 27.67 61.2 27.67 46.83 28.78 46.83 28.78 45.2 28.29 45.2 28.78 44.78 46.29 29.89 48.19 28.27 66.19 12.96 84.18 28.27 86.08 29.89 103.6 44.79 104.08 45.2 103.6 45.2 103.6 46.83 104.7 46.83"/><path class="cls-7" d="M83.38,71.7V96H48.92V71.7c0-11.52,7.72-20.87,17.24-20.87A15.84,15.84,0,0,1,78.34,57,23.16,23.16,0,0,1,83.38,71.7Z"/><path class="cls-8" d="M82,72.7V96h-33V72.7c0-11.05,7.4-20,16.53-20a15.18,15.18,0,0,1,11.68,5.86A22.23,22.23,0,0,1,82,72.7Z"/><path class="cls-5" d="M41.14,96H25.22l-.12-.23c0,.08,0,.16,0,.23H20.46a16.1,16.1,0,0,0-2.8-4.85,10.53,10.53,0,0,1,3.08.9,21.86,21.86,0,0,0-3-7.45,28.48,28.48,0,0,1,6.52,4.23c-.24-5.42.42-11.22,2.89-15.35A40.17,40.17,0,0,0,29,85c.73,2.52,1.56,4.86,2.29,6.75l.15-.34a20.33,20.33,0,0,1,5-6.82A20.4,20.4,0,0,0,36,93.17,7.88,7.88,0,0,1,41.32,90,8.37,8.37,0,0,0,41.14,96Z"/><path class="cls-5" d="M109.87,96H91.62a13.6,13.6,0,0,0,4.14-7.37A12.83,12.83,0,0,1,97.09,93a28.89,28.89,0,0,0,4-9.27,25.2,25.2,0,0,1,2.76,11.89c3.43-4.82,4.19-11.65,5-17.83C110.55,83.37,111.34,90.36,109.87,96Z"/></g></g></svg>