<?xml version="1.0" encoding="utf-8"?>
<svg xmlns="http://www.w3.org/2000/svg" xmlns:xlink="http://www.w3.org/1999/xlink" viewBox="0 0 131 126"><defs><style>.cls-1{fill:none;clip-rule:evenodd;}.cls-2{isolation:isolate;}.cls-3{fill:#f1f1f1;}.cls-4,.cls-8{fill:#9f5f28;}.cls-10,.cls-11,.cls-4,.cls-5,.cls-6,.cls-7,.cls-8,.cls-9{fill-rule:evenodd;}.cls-5{fill:#cd8f33;}.cls-6{fill:#ede8d5;}.cls-7{fill:#d9cda7;}.cls-18,.cls-8{mix-blend-mode:multiply;}.cls-9{fill:#131413;}.cls-10{fill:#353736;}.cls-11,.cls-17{fill:#05b93c;}.cls-12{fill:#251100;}.cls-13{clip-path:url(#clip-path);}.cls-14{fill:#e6412d;}.cls-15{fill:#ceebef;}.cls-16{fill:#d4ccc9;mix-blend-mode:soft-light;}.cls-18{fill:url(#linear-gradient);}</style><clipPath id="clip-path"><path class="cls-1" d="M32.32,24.55c0-.12,0-5.08,0-5.2s4.79,1.75,5.77,1.89a16.67,16.67,0,0,1,2.36.83c1.43.35,3.86.3,4.94.5.49.08,2.69,1.07,1,1.34S42.49,22.85,41,22.57s-2.74-.27-3.54-.48C36.86,22,32.94,24.9,32.32,24.55Z"/></clipPath><linearGradient id="linear-gradient" x1="24.6" y1="71.63" x2="106.4" y2="71.63" gradientUnits="userSpaceOnUse"><stop offset="0" stop-color="#fff7ee"/><stop offset="0.44" stop-color="#ebdede"/><stop offset="1" stop-color="#d5c1cc"/></linearGradient></defs><title>Servicio 4</title><g class="cls-2"><g id="Capa_1" data-name="Capa 1"><path class="cls-3" d="M.29,69.28C3.9,42.13,18.61,37.68,38.8,23.7S88.61-2.83,115.41,43.51c11.25,19.45,26.79,35.85,3.47,64.27S75,125,51.08,116.55-3.31,96.44.29,69.28Z"/><path class="cls-4" d="M65.79,74.31c-3.3.91-1.94.54-5.09.2-2.24-.23-6.5-1.56-6,1.53.08.5.12,1,.61,1.32,1.35.88,4.59-.11,6.21,0a16.57,16.57,0,0,1,1.89.31c.52.09.84.17,1.27.25L65.74,77Z"/><path class="cls-5" d="M61.24,21.92c1.89,6.16,1.93,7.34,7,14.36a101.71,101.71,0,0,0,8,9.9c6,6.55,6.46,11,7.21,12.11s4.43,2.22,5.14,7.9c.24,1.84-.38,4.37-.78,7.77a9.85,9.85,0,0,0,0,1.8c.09,1.68.4,2.57-.09,3s-1.34.28-3.22.86a19.52,19.52,0,0,1-4.41,1c-.73,0-1.58.3-1.76-.4-.39.22-2,.08-1.71-.82-.61.54-.92.07-1-.13-.25-.47,0-1.42,1.26-2.21-2.83.62-2.34,1.07-5.24,1-.16,1.53,0,1.67-1.61,2.26a3.79,3.79,0,0,1-3,0c-.68.21-2.74.4-3-.38-1.93.19-1.82-1.34-1.11-2.05.93-.94,1.67.23,2.14-1.24.64-1.93-.31-4.56-1.23-6.21-2.73-3.18-4.11-3.47-6.88-6.87A49.77,49.77,0,0,0,55.69,70c-.1,1.36-.14,2.41-1.12,3.39.21,2.21,1.13,4.17-1,4.43.2,1.92-.28,2.15-2.16,1.55a4.55,4.55,0,0,1-3-.25c-1,0-1.57-.18-1.88-.79s-.26-1.74,1.31-1.8c.88,0,1.43-.25,1.8-1.6a14.41,14.41,0,0,0,.27-5.72A4.55,4.55,0,0,1,50,67.57a21.06,21.06,0,0,0,.33-6,27.28,27.28,0,0,0-.46-3c-.39-2,0-3.4-.1-6-.71-1.82-2.61-6.26-2.6-7.94,0-3.91,3.13-4.6,3.1-9.58,0-2.13-1-4.21-2.84-8Z"/><path class="cls-4" d="M76.61,77.13,76.8,77c2.51-1.69,4.55.12,7.67-1.39.51-1.68-2.83-2.35-3.77-4.11-2.58-4.81-2.42-4-.31-8.72-4.88,3.63-5.59,4-10.29-.51a59.59,59.59,0,0,0,.26,6c.3,2,1,2.1,1.07,3.6.09,2.8-1,1.2.22,6V78c2.77.09,2.42-.32,5-.91Zm-13-7a33.51,33.51,0,0,1,.23-4.07c0-4.61-.07-6.11-1-7.83a23,23,0,0,0-3-4.35c1.71,3.49,2.65,3.82,3.09,6.44a39.22,39.22,0,0,1-.18,8.95c.26.26.52.55.8.86ZM53.12,58.44c-.46-.91-.84-1.79-1.22-2.68-1-2.23-1.16-3.29-2.78-4.66l.61,1.53c.05,2.57-.29,4,.1,6a27.28,27.28,0,0,1,.46,3,21.06,21.06,0,0,1-.33,6,4.55,4.55,0,0,0-.12,1.66A14.41,14.41,0,0,1,49.57,75c-.37,1.35-.92,1.57-1.8,1.6-1.57.06-1.65,1.13-1.31,1.8s.93.83,1.88.79a4.55,4.55,0,0,0,3,.25c1.88.6,2.36.37,2.16-1.55,2.15-.26,1.23-2.22,1-4.43,1-1,1-2,1.12-3.39a46,46,0,0,1,1.19-6.32A26,26,0,0,1,53.12,58.44Z"/><path class="cls-6" d="M83.49,79.93c-.73-.45-1.34-.86-1.34-.86a10.33,10.33,0,0,0-1.58-2.44,2.79,2.79,0,0,0-1.89-.51,3.26,3.26,0,0,0-1.57.66,4.1,4.1,0,0,0-.47.35l.23-.06c-1.23.79-1.51,1.74-1.26,2.21.11.2.42.67,1,.13-.3.9,1.32,1,1.71.82.18.7,1,.42,1.76.4a15.65,15.65,0,0,0,3.38-.7ZM71.55,78.84l-.66-.18a7.71,7.71,0,0,1-1.32-.4c-.52-.24-.92-.75-1.48-.87s-1,.27-1.58.21A10.09,10.09,0,0,1,65,77L64.87,77c-.48.87-1.16,0-2,.86S62.06,80.09,64,79.9c.26.78,2.32.59,3,.38a3.79,3.79,0,0,0,3,0c1.29-.47,1.45-.65,1.53-1.46ZM62.4,68.9l.4-.06c-.64-8.58-.83-8.45-2-13.44-.26-1.14-.53-2.3-.84-3.47a32.38,32.38,0,0,1-3.76-6.88c-1-2.94.07-4.24-.56-9.93-.06-.46-2-3-2-3.61s.31-2.59-.41-3.36-2.22-.3-2.95-.26-.4.66-1.33.51a7.08,7.08,0,0,1-1-.29c1.54,3.19,2.31,5.07,2.33,7,0,5-3.07,5.67-3.1,9.58,0,1.27,1.07,4.12,1.91,6.22.52.46,1.08,1.3,2.16,3.63,1.62,3.51,4,8,5.84,9l0,.22c2.17,2.62,3.49,3.34,5.34,5.19Zm-7.5,7.32a2,2,0,0,0-1.17-.36,16.62,16.62,0,0,0-2.34,0c-.55,0-1.08.21-1.63.21a5.79,5.79,0,0,1-.72,0,1.64,1.64,0,0,1-1.27.47c-1.57.06-1.65,1.13-1.31,1.8s.93.83,1.88.79a4.55,4.55,0,0,0,3,.25c1.88.6,2.36.37,2.16-1.55A1.37,1.37,0,0,0,55,76.26Z"/><path class="cls-7" d="M36.27,18.84A5.13,5.13,0,0,0,36.91,21c-.17.26-1,.33-1.13,0A2.64,2.64,0,0,1,36.27,18.84Z"/><path class="cls-8" d="M43.44,24.14c0,2.73-.76,4,0,5,.82,1.12,3.26,1.47,5.7-2.68l-3.52-2.76Z"/><path class="cls-5" d="M35.2,14.41c2.67-.3,5-.34,7.08-1.82.7-1.64.83-1.54,2.61-1.73a10.08,10.08,0,0,1,1.91-.48,16.79,16.79,0,0,1,8.28,1.9c1.42.93,1.57,1.47,2.44,3.15a18.61,18.61,0,0,1,4,7.7c1.23,4.88-1.26-.27-4.68,10.29.07-1-3.22-6.2-3.22-6.21s-3.86,1.18-5.88.22A5.37,5.37,0,0,1,45.93,26c-2.76-1.27-5.69-.77-9.15-2.91-1.52-1-1.26-1.44-1.19-2,0,0,3.23.44,3.09.37a14.18,14.18,0,0,1-3.81-1.68c-.42-.33-.93-.72-1.09-.89a3.69,3.69,0,0,1-1-3.62C33,14.71,34,14.55,35.2,14.41Z"/><path class="cls-9" d="M35.56,21.31c0-.11,0-.23,0-.34a14.37,14.37,0,0,1,2.82.44,14.58,14.58,0,0,1,2.07.66c1.43.35,3.86.3,4.94.5.49.08,2.69,1.07,1,1.34S42.49,22.85,41,22.57s-2.74-.27-3.54-.48A8.09,8.09,0,0,1,35.56,21.31Z"/><path class="cls-10" d="M34,19l-.17-.15a3.69,3.69,0,0,1-1-3.62c.16-.38.69-.57,1.41-.7,1.36.24,1.66.83,1.73,1.32a1.11,1.11,0,0,1-.76,1.2c-.47.09-1,0-1-.7-.26-.19-.42-.3-.51-.25-.38.2-.19.71.07,1s1,.32,1,.57A2.38,2.38,0,0,1,34,19Z"/><path class="cls-6" d="M37.15,21.55,36.68,21l-.14.22-.14-.38-.27.32-.39-.72a2.16,2.16,0,0,0,0,.8C36.42,21.5,37.44,21.79,37.15,21.55Z"/><path class="cls-11" d="M62.8,25.64s-2.43,4.89-13.7,5.94a24.58,24.58,0,0,1,.63,2.8s7.17.79,14.08-5.77C63.28,26.8,62.8,25.64,62.8,25.64Z"/><path class="cls-4" d="M55.28,14.93l-.78.57a4.2,4.2,0,0,0-.81,1.32A10.07,10.07,0,0,0,54.27,18l.53.94c.09.15-.28.73-.27.9a12,12,0,0,0,.75,1.24,9.23,9.23,0,0,1,.84,3.61c.36,2.73,1,6.3,2.72,6.88-.18-3.18-.57-10.83-2-13.66Z"/><path class="cls-5" d="M60.2,19.94a1.83,1.83,0,0,0-.5-.46,9,9,0,0,1,.58,1.3c.17.61.28,1.34.42,2.11.22,1.2.45,2.48.69,3.52.78,3.44.48,4.92-.46,5.42-2.36,1.24-3.82-2.5-4-4.27-.13-1.14,0-2.07,0-3.45a35.35,35.35,0,0,0-.44-6.44,24.13,24.13,0,0,1-1.17-2.86,5.3,5.3,0,0,0,2.5,1.4C59,16.73,59.82,18.83,60.2,19.94Z"/><path class="cls-12" d="M44.58,13.39c0,.37.78.17,1.47.26A3.39,3.39,0,0,1,48,15a2.73,2.73,0,0,0-1.55-1.89C45.73,12.85,44.52,12.78,44.58,13.39Z"/><g class="cls-13"><path class="cls-14" d="M42.53,22a9.65,9.65,0,0,1-3-.67c-2.5-.76-3.53-1.15-4.68-.93s-3,3.18-1.77,3.49,1.43-2.57,2-2.45c1.27.27,2.77.59,4.34.89S41.91,22.7,42.53,22Z"/></g><path class="cls-15" d="M42.94,10.7c-2.37-.59-3.32-4.86-.95-6s3.72,0,4.08-.33S45.81.51,49.62.05s5,2.37,5,2.37,4.41-3,7.24-.2.33,6.52.33,6.52a5.25,5.25,0,0,1,4.67,4.47c.73,4.21-2,5.56-4.93,6s-4.54-3.46-4.54-3.46-2.17,2.18-6,0-2.3-5.27-2.3-5.27A11,11,0,0,1,42.94,10.7Z"/><path class="cls-16" d="M45.13,6.27c0,.76-.83,1.38-1.85,1.38S41.43,7,41.43,6.27s.83-1.37,1.85-1.37S45.13,5.51,45.13,6.27Z"/><path class="cls-16" d="M53.81,3.25c0,1.39-1.52,2.52-3.4,2.52S47,4.64,47,3.25,48.54.72,50.41.72,53.81,1.85,53.81,3.25Z"/><path class="cls-16" d="M61.46,4c0,1.21-1.32,2.19-2.94,2.19s-3-1-3-2.19,1.32-2.2,3-2.2S61.46,2.79,61.46,4Z"/><ellipse class="cls-16" cx="54.57" cy="11.35" rx="4.47" ry="3.96"/><path class="cls-15" d="M101.62,64.09c.37-.37,6.81-5.9,1-9.87s-9.28,3.35-9.28,3.35-.24-5.2-5.26-4.14a4.81,4.81,0,0,0-4,5.82s-1.85-1.06-2.82-.09a15.14,15.14,0,0,0-1.4,1.58s1.93-3.21-2.74-4.73-7.54,1.56-8,3.85a8.36,8.36,0,0,0,.39,4.23Z"/><path class="cls-16" d="M94.71,57.42c0,1.87,2,3.38,4.55,3.38s4.54-1.51,4.54-3.38-2-3.39-4.54-3.39S94.71,55.55,94.71,57.42Z"/><path class="cls-16" d="M86.19,56.67c0,1.28,1.4,2.32,3.12,2.32s3.12-1,3.12-2.32-1.4-2.33-3.12-2.33S86.19,55.38,86.19,56.67Z"/><path class="cls-15" d="M52.44,64.09s1.1-1.63,0-2.72a1.32,1.32,0,0,0-2.1,0s1.48-2.59-.43-4.5-4.81-.35-4.81-.35a5.81,5.81,0,0,0-5.91-5.45c-5.07-.19-5.52,5.45-5.52,5.45s-4.24-3-6.58-.6c-3.82,3.81-.33,8.17-.33,8.17Z"/><ellipse class="cls-16" cx="39.45" cy="54.93" rx="3.65" ry="2.72"/><path class="cls-16" d="M45.36,58.49c0,.67.73,1.22,1.63,1.22s1.63-.55,1.63-1.22-.73-1.21-1.63-1.21S45.36,57.82,45.36,58.49Z"/><path class="cls-16" d="M28.31,57.5c0,.67.73,1.21,1.63,1.21s1.63-.54,1.63-1.21-.73-1.21-1.63-1.21S28.31,56.83,28.31,57.5Z"/><path class="cls-16" d="M38.33,60.56c0,1.14,1.23,2.06,2.76,2.06s2.76-.92,2.76-2.06-1.24-2.06-2.76-2.06S38.33,59.43,38.33,60.56Z"/><path class="cls-17" d="M34.49,96h62a6,6,0,0,0,5.95-5.1L106.4,70H24.6L28.54,90.9A6,6,0,0,0,34.49,96Z"/><polygon class="cls-18" points="24.59 70.04 106.41 70.04 105.84 73.22 25.08 73.22 24.59 70.04"/><rect class="cls-17" x="19.63" y="63.66" width="91.74" height="7.02" rx="0.81"/></g></g></svg>