<?xml version="1.0" encoding="utf-8"?>
<svg id="Capa_1" data-name="Capa 1" xmlns="http://www.w3.org/2000/svg" viewBox="0 0 131 126"><defs><style>.cls-1{fill:#2b3a40;}.cls-2{fill:#bd8c48;}.cls-3,.cls-9{fill:#e0a655;}.cls-4{fill:#ebc17a;}.cls-5{fill:#e94e1b;}.cls-6{fill:#ededed;}.cls-7{fill:#211f1e;}.cls-14,.cls-8{fill:#3c3c3b;}.cls-8{opacity:0.5;}.cls-9{opacity:0.75;}.cls-10{fill:#1d1d1b;}.cls-11{fill:#575756;}.cls-12{fill:#f6f6f6;}.cls-13{fill:#3f2c22;}.cls-15{fill:#0a0a0a;}.cls-16{fill:#05b93c;}.cls-17{fill:#11191c;opacity:0.4;}.cls-18{fill:#686868;}</style></defs><title>Servicio 5</title><path class="cls-1" d="M120,87.19c8.67-21,22-39.51-5.13-64.87S68.54,11,45.71,22.61-6.11,50.05,1.13,76.78,23.72,106,45.83,117.3,99.3,137.22,120,87.19Z"/><path class="cls-2" d="M86.3,89H63.2C61.05,87.87,62,83.48,65.94,84l4.89,1.36L90,83.48v1.91A3.66,3.66,0,0,1,86.3,89Z"/><path class="cls-2" d="M90,75.46c0,6.57,2.39,12.77-11.66,11.9-7.6-.48-13.78-5.33-13.78-11.9s6.17-11.91,13.78-11.91S90,68.88,90,75.46Z"/><path class="cls-2" d="M40.64,86.24l-4.75-2s6.16-7.9,6.62-9.52l8-24.87,13,5.32L47.9,79.68C45.65,81.46,40.64,86.24,40.64,86.24Z"/><path class="cls-2" d="M37.26,88.89,33.07,89c-3.84,0-3.25-1.85-2-3.07s4.66-1.4,5.39-2.48l5.2.6C41.68,83.36,41,88,37.26,88.89Z"/><path class="cls-3" d="M44.87,15.18,37,17.35c-1.72-3.83-2.26-7.17-1.13-10.57C37.81,5.38,40.53,13.9,44.87,15.18Z"/><path class="cls-4" d="M41.68,88.89,37.49,89c-3.83,0-3.25-1.85-2-3.07s4.66-1.4,5.4-2.48l5.19.6C46.1,83.36,45.38,88,41.68,88.89Z"/><path class="cls-5" d="M31.4,33.94a8.34,8.34,0,0,0-2.65,1.49,2.23,2.23,0,0,0-1,1.81c-.13,1-.56,2.07-.25,3,.21.62,1,1,1.28.52s0-3.33.28-4a1.66,1.66,0,0,1,.76-1c1-.25.55-.39,1.09-.59a44.11,44.11,0,0,0,4.57-1.85A27.17,27.17,0,0,0,31.4,33.94Z"/><polygon class="cls-6" points="31.03 35.11 30.19 35.55 30.06 33.88 31.03 35.11"/><polygon class="cls-6" points="31.8 34.91 31.03 35.33 31.03 34.23 31.8 34.91"/><polygon class="cls-6" points="32.5 34.72 31.74 35.14 31.73 34.04 32.5 34.72"/><polygon class="cls-6" points="33.32 34.3 32.56 34.72 32.55 33.62 33.32 34.3"/><path class="cls-4" d="M64.14,34.78l-2.48,1.33-3.32,5.52-8.76,1.13-4.45,3.51a3.43,3.43,0,0,0,0-.56,13.62,13.62,0,0,0-1.43-4.88c-1.32-2.91-3.19-5.76-4-6.16-.09-.05-1.57-1.44-1.63-1.42L32.8,36c-.74.24-.13,1.59-.84,1.33a3.31,3.31,0,0,1-1-.6l0,0c-.33-.28,1.14-.81,1.53-1l2.84-1.4c.58-.28,2.24-2.36,2-2.94l0,0c-.21-.47-2.13-2.13-2.65-2.06l-7.52,1.11c-1.73.22-2.05.91-3.15-.43l-.85-1a1.18,1.18,0,0,1,.26-1.73l8.15-4.79L32,21c.05-.13.11-1.65.17-1.78a8.43,8.43,0,0,1,3.07-3.69c3.4-2.2,7.44-3,10.17-1l6.2,5.38.32.28L64,34.64Z"/><path class="cls-4" d="M44.73,17.5c-2.19,1.08-5.66.12-5.92-.77-1.26-4-1.42-7.37.1-10.62.41-.23.79-.08,1.16.31,1.33,1.41,1.18,6,3.68,8.15.17.14,1.71.32,1.8.5A1.82,1.82,0,0,1,44.73,17.5Z"/><path class="cls-4" d="M98,84.45l-6.26-2.93-19-8.92-5.48-1.73c-7.49-2.36-12.57-7.07-17.08-13.38-.51-.71-1-1.44-1.46-2.19l-1.5-1.55c-1.73-2.86-1-4.79-.64-8,.09-.77-1.16-1.53-.95-2.28l.2-.71,13.64-8.36,4.3-2.65.23.16,3.64,2.57c5.57,3.94,7.59,8.8,11.47,14.37l5.36,7.68a58,58,0,0,1,8.86,19.84l.54,2.31Z"/><path class="cls-4" d="M108.08,90.22c-.44,2-.5,2.15-3,3.24A36,36,0,0,1,91.62,96C84.06,95.8,76.55,94.9,77.34,94c.93-1.34,3.08-2.08,5.43-2.5a54.63,54.63,0,0,1,8.66-.5c10.95-.69,9.89-2.69,9.89-2.69s-2.21-.94-3.5-1.39c-1.11-.4-2.28-.8-3.43-1.32-.39-.17-.76-.35-1.14-.56a13.12,13.12,0,0,1-2-1.29,3.79,3.79,0,0,1-.38-.32,8,8,0,0,1-.62-.54l3.26-2.5a1.61,1.61,0,0,0,.53.3l.54.18c2.61.73,8.69,2.43,9.89,3.06C108.43,86.06,108.73,87.25,108.08,90.22Z"/><path class="cls-7" d="M39.75,34.67a.29.29,0,0,0-.23,0L32.8,37.4a3.42,3.42,0,0,1-3.28-.65l0,0a.6.6,0,0,1,.13-1L35.27,33a1.19,1.19,0,0,0,.56-1.56v0a1.21,1.21,0,0,0-1.25-.68L27.05,31.8A5.06,5.06,0,0,1,22.5,30L22,29.31l-.3-.37a1.18,1.18,0,0,1,.26-1.73L23,26.48,31.46,21,32,19.62c.05-.14.11-.27.17-.4A3.17,3.17,0,0,1,33,20a18,18,0,0,1,.92,1.6,12.45,12.45,0,0,0,2,2.17.25.25,0,0,1-.12.44c-1.47.19-3.63-.5-5.09-.66-3.9,4.29,1.92,5.91,2.51,5.73,2.15-.66,3.7.25,5.17,1.93A5.63,5.63,0,0,1,39.75,34.67Z"/><path class="cls-8" d="M39.66,15.86a1.1,1.1,0,0,1-.64-.33,1.27,1.27,0,0,1-.22-.66c-.4-2.69-.8-5.49.05-8.08a.22.22,0,0,1,0-.11.22.22,0,0,1,.31,0,.61.61,0,0,1,.1.33c.34,2.69,1.95,5,3.1,7.52.15.33.28.79,0,1a.79.79,0,0,1-.45.16A5.72,5.72,0,0,1,39.66,15.86Z"/><path class="cls-9" d="M49.74,18.25c-.22.41-.45.82-.66,1.23a8.47,8.47,0,0,0-.65,5.62A4.41,4.41,0,0,1,46.51,23c-1.34.69-1.62,2.42-1.77,3.9-.26,2.7-.77,5.7-3,7.32a57.24,57.24,0,0,0,1.53-6.62,4,4,0,0,0-1.2.07,4.2,4.2,0,0,0-.33-4.16,8.18,8.18,0,0,0-3.36-2.76,14.75,14.75,0,0,0,5.45-5.07,8.7,8.7,0,0,1,1.08-1.54Z"/><path class="cls-7" d="M41.94,19.15l2,.35a1.91,1.91,0,0,1-.09-2.24c.31-.46.84-.79,1-1.31A1.31,1.31,0,0,0,44,14.28a4.2,4.2,0,0,1-2.78,3c-1.71.55-3.6,0-5.36.37,0,.87,1.68,1,1.68,1.84S36,20.51,36.16,21.31a1.07,1.07,0,0,0,.33.49A10,10,0,0,0,40,24.49c0-.72,0-1.43,0-2.15a.63.63,0,0,1,.1-.39c.18-.23.55-.13.78.06s.41.44.7.49.82-.39.82-.83a3.06,3.06,0,0,0-.4-1.25A1.5,1.5,0,0,1,41.94,19.15Z"/><path class="cls-7" d="M109.48,90.22c-.44,2-1.9,3.54-4.36,4.62-2.23,1-7.87,1.26-13.5,1.13a17.77,17.77,0,0,1,4.31-1.44c4.06-.79,8.75-.36,11.74-3.16A15.71,15.71,0,0,0,104.41,89a2.39,2.39,0,0,0-.1-3.73,5.84,5.84,0,0,0-2.89-.62,13,13,0,0,1-7.59-3.2,4.7,4.7,0,0,0,.18-.74c2.18.86,9.15,1.18,10.43,1.86C108.43,84.68,110.14,87.25,109.48,90.22Z"/><path class="cls-10" d="M34,22.52c-1,1-2.36.43-2.11-1.33l1.45.49Z"/><path class="cls-11" d="M31.81,21.52v.15a.46.46,0,0,0,0,.16l0,.21c0,.07,0,.15.08.23a1.35,1.35,0,0,0,.14.22,1,1,0,0,0,.2.2l.12.08.13.06a.9.9,0,0,0,.28.08h.29a1.1,1.1,0,0,0,.26-.06,1,1,0,0,0,.23-.08.86.86,0,0,0,.19-.11l.13-.09.11-.09-.09.11a.4.4,0,0,1-.11.12.66.66,0,0,1-.18.14.84.84,0,0,1-.23.12,2.46,2.46,0,0,1-.29.09,1.82,1.82,0,0,1-.33,0,1.32,1.32,0,0,1-.33-.08l-.15-.07-.14-.1a1.26,1.26,0,0,1-.22-.24,1.66,1.66,0,0,1-.13-.27,1.32,1.32,0,0,1-.05-.26,1.7,1.7,0,0,1,0-.22.57.57,0,0,1,0-.16Z"/><path class="cls-11" d="M31.6,21.15h.14a1.52,1.52,0,0,1,.35,0l.25,0,.26.08c.09,0,.18.06.27.11l.27.14.24.17a1.06,1.06,0,0,1,.23.19,2.33,2.33,0,0,1,.34.38,3.35,3.35,0,0,1,.19.3l0,.13-.11-.08-.27-.22-.19-.14-.2-.14c-.14-.11-.31-.2-.46-.3s-.32-.19-.48-.26a2.53,2.53,0,0,0-.23-.12l-.2-.09c-.13-.07-.25-.1-.33-.14Z"/><path class="cls-12" d="M32.33,22c.05.19,0,.37,0,.39s-.19-.12-.24-.32,0-.37,0-.39S32.27,21.8,32.33,22Z"/><path class="cls-10" d="M22.88,29.06l-.93.25-.3-.37a1.18,1.18,0,0,1,.26-1.73L23,26.48l.53,1A1.09,1.09,0,0,1,22.88,29.06Z"/><path class="cls-4" d="M67.93,55.14,62.3,64l-10,15.69c-2,1.58-6.16,5.52-7.07,6.39l-.18.17-.1,0-.74-.31L40.3,84.21s6.17-7.9,6.63-9.53L52.41,57.6l2.51-7.78,6.24,2.55Z"/><path class="cls-9" d="M61.19,52a1.8,1.8,0,0,0,0,.4,5.11,5.11,0,0,0,.63,1.92,21.59,21.59,0,0,1,2,7l-2.33-.16c-.17,1,.6,1.47,1.13,2.38L52.32,79.68c-2,1.58-6.16,5.52-7.07,6.39L45,86.2l-.38.18a.86.86,0,0,1-.36-.49,2.62,2.62,0,0,1,.7-2.06c1.48-1.9,3-3.79,4.46-5.69H48l3.46-6.41a29.91,29.91,0,0,0,2.89-6.56,10.43,10.43,0,0,0-.13-6.33,1.46,1.46,0,0,1-.17,1.06,13.91,13.91,0,0,1-1.67-2.3A19.73,19.73,0,0,1,50,50.27a54.3,54.3,0,0,1-.06-10.59l-2.07.72q.93-3.81,1.88-7.62a2,2,0,0,0,0-1.22c-.16-.38-.71-.62-1-.33q2.1-3.69,4.21-7.38c2.66,2,3.77,5.4,6,7.85s5.38,3.82,6.67,6.71a8.35,8.35,0,0,1-.17,6.45A26.24,26.24,0,0,1,62,50.5,3.48,3.48,0,0,0,61.19,52Z"/><path class="cls-4" d="M94.41,83.48v1.91a1,1,0,0,1,0,.25,3.41,3.41,0,0,1-.7,1.9,2.94,2.94,0,0,1-.36.42A3.7,3.7,0,0,1,90.72,89H67.61c-2.14-1.15-1.16-5.54,2.75-5l4.89,1.36.16,0L82,84.68,89.33,84l1-.09.92-.09,2.92-.28Z"/><path class="cls-4" d="M94.41,75.46c0,6.57,2.39,12.77-11.66,11.9C75.15,86.88,69,82,69,75.46s6.17-11.91,13.78-11.91S94.41,68.88,94.41,75.46Z"/><path class="cls-9" d="M92.17,87.12a9.23,9.23,0,0,0-1.74-2.4,3.7,3.7,0,0,1-1.1-.75,2.13,2.13,0,0,1-.26-.32,2.78,2.78,0,0,1,1.37-2,2.22,2.22,0,0,1-1.09-3.16,4.69,4.69,0,0,1,3.16-2,2.65,2.65,0,0,0,0-2.67,14.66,14.66,0,0,1-1.21-2.53,13.71,13.71,0,0,0-.42-1.9,4.46,4.46,0,0,0-1.31-1.5,44.29,44.29,0,0,0-5.68-4l-.45-.25a3.35,3.35,0,0,0-1.93-.52,3.4,3.4,0,0,0-1.7.78l-.28.21a23.49,23.49,0,0,0-3.79,3.8,4.67,4.67,0,0,0-1.39,4.61A.9.9,0,0,0,73,72.26c-.4.37-1.43,1.46-1.42,2,0,2.68,2.85,4.75,5.42,5.63-.46-.06-1.84,1.17-1.73,1.63s1.53.11,1.91.4A23,23,0,0,0,82,84.68a18.16,18.16,0,0,0,2.13.79l-5.16.89c0,.12,0,.25.08.38s.07.29.1.45l-5.21.07a2.4,2.4,0,0,0-1.31.27A1.37,1.37,0,0,0,72.12,89H89.49l2.08-.57A1.24,1.24,0,0,0,92.17,87.12Z"/><path class="cls-7" d="M97.47,81.45c-.07.85-1.78.72-3.06,0-.93-.54-2.69-4.53-3.68-5q-.36-2.94-.73-5.88l-2.22-.51A3.06,3.06,0,0,0,87,66.29a8.16,8.16,0,0,0-3.86-1.61C79.65,63.94,76,63.53,72.81,62s-6.07-4.42-6.18-7.93C66.56,52,67.46,50,68,48s.74-4.39-.58-6c-.17,1.88-.53,4.07-2.22,4.95-1.06-1.2-1.09-3-1-4.54s.32-3.27-.42-4.67a3.25,3.25,0,0,0-2.17-1.58,2,2,0,0,0-1.83.5,5.87,5.87,0,0,0-.36-2.25,7.39,7.39,0,0,0-7.28-4.89,28.19,28.19,0,0,0,.05-7.34,12.73,12.73,0,0,0-.62-2.25l.32.28L64,31.87l3.64,2.57A58.71,58.71,0,0,1,81.92,48.81l5.36,7.68a57.82,57.82,0,0,1,8.85,19.84Z"/><path class="cls-13" d="M45.79,14.83c-.13.1-.51.47-.64.57a.68.68,0,0,1-.39.19c-.33,0-.38-.48-.51-.78-.23-.53-.9-.7-1.35-1.07-.69-.59-.76-1.59-1.06-2.44-.46-1.35-1.6-2.46-1.76-3.87,0-.34,0-.68,0-1,1.33,1.41,2.52,5.73,5,7.86C45.26,14.43,45.69,14.64,45.79,14.83Z"/><path class="cls-1" d="M45.08,47.79v0Z"/><path class="cls-1" d="M45.24,49.64a.13.13,0,0,1,0-.06A.13.13,0,0,0,45.24,49.64Z"/><polygon class="cls-1" points="65.2 70.09 65.2 70.09 65.2 70.09 65.2 70.09"/><path class="cls-14" d="M45.08,47.48a13.13,13.13,0,0,1,.1-1.77A13.13,13.13,0,0,0,45.08,47.48Z"/><path class="cls-14" d="M45.23,49.58a15.25,15.25,0,0,1-.15-1.79A13.51,13.51,0,0,0,45.23,49.58Z"/><path class="cls-14" d="M62.66,69c.82.39,1.68.73,2.54,1.06-.86-.33-1.7-.69-2.53-1.08Z"/><path class="cls-14" d="M45.24,49.64a14.71,14.71,0,0,0,1.07,3.71h0A14.71,14.71,0,0,1,45.24,49.64Z"/><path class="cls-15" d="M60.91,66.18c.21.13.41.24.61.34,2,1.51,7-13.17-2.4-19.93-1.34-1-5.83,1.2-8.15,4-3.16,3.79.88,8.77.88,8.77l-.45,1.41c-1.7-2-3.13-4-3.13-4-.32-.47-.65-1-1-1.44l-.1-.17a14.22,14.22,0,0,1-.91-1.78h0a14.71,14.71,0,0,1-1.07-3.71.13.13,0,0,1,0-.06,15.25,15.25,0,0,1-.15-1.79v-.31a13.13,13.13,0,0,1,.1-1.77c.61-1.16,10.73-3.72,15-17.53L64,31.87l3.64,2.57A58.71,58.71,0,0,1,81.92,48.81l5.36,7.68c-1.6,3.65-5.78,2.59-10.39,6.55C73.77,65.7,69,69,65.2,70.09h0c-.86-.33-1.7-.69-2.53-1.08v0c-.92-.43-1.81-.89-2.68-1.39Z"/><path class="cls-15" d="M78,45.25c-1.4,0-9-6.89-9.57-9.57l0-.21.09-.2a2,2,0,0,1,1.18-1.05,2,2,0,0,1,1.72.34,36,36,0,0,1,3.2,2.71A40.74,40.74,0,0,0,79,40.93a2,2,0,0,1,1,2.4C79.8,44.25,79,45.25,78,45.25Zm-8.12-9.58c.86,2.32,7.33,7.91,8.24,8.21a2.25,2.25,0,0,0,.56-1,.65.65,0,0,0-.39-.73,37.41,37.41,0,0,1-4.66-3.84,36.56,36.56,0,0,0-3-2.57c-.14-.09-.38-.23-.56-.17A.44.44,0,0,0,69.91,35.67Z"/><path class="cls-16" d="M66.79,38.56l-.62-.6.46-.47c.11-.11.12-.22,0-.3s-.2-.08-.31,0l-.4.39a.52.52,0,0,0-.06.54,2,2,0,0,1,.11.32,1.13,1.13,0,0,1,0,.73,1.19,1.19,0,0,1-.26.4l-.43.43a.93.93,0,0,1-1.48,0c-.5-.48-.57-.94-.07-1.44l.46-.47.63.6-.46.47c-.12.11-.13.21,0,.31s.19.07.31,0L65.1,39a.5.5,0,0,0,.07-.53c0-.1-.07-.21-.11-.33a1,1,0,0,1,.22-1.12l.44-.44a.91.91,0,0,1,1.46,0c.5.48.57.94.08,1.44Z"/><path class="cls-16" d="M68.77,39.27l-.5-.48-.83.84.49.46-.53.54-.48-.47-.85.85.5.48L66,42l-1.14-1.1,3.26-3.3,1.15,1.1Z"/><path class="cls-16" d="M70,41.58,69.3,41l.46-.46c.11-.12.12-.22,0-.31s-.2-.08-.32,0l-1.92,1.94c-.13.13-.12.22,0,.32s.21.1.33,0l.69-.7-.17-.17.51-.51.79.76-1.21,1.22a.92.92,0,0,1-.74.34A1.25,1.25,0,0,1,67,43a1.29,1.29,0,0,1-.42-.73.91.91,0,0,1,.33-.74l1.93-1.95a.92.92,0,0,1,.74-.34,1.5,1.5,0,0,1,1.17,1.12.92.92,0,0,1-.33.74Z"/><path class="cls-16" d="M72.87,42.16l-2.6,2.62a.93.93,0,0,1-.74.35,1.33,1.33,0,0,1-.74-.4,1.24,1.24,0,0,1-.43-.72.92.92,0,0,1,.33-.75l2.6-2.62.65.63-2.59,2.62q-.16.16,0,.3c.09.09.19.08.3,0l2.6-2.62Z"/><path class="cls-16" d="M71.46,47.23l-.59-.56.72-1.19-.16-.16-1,1-.65-.63,3.26-3.3.93.89c.26.25.38.46.36.65a1.18,1.18,0,0,1-.42.68l-.94,1a.9.9,0,0,1-.74.3Zm1.75-3.71-1.3,1.31.17.15c.09.08.17.06.29-.06l.94-1c.14-.13.14-.21,0-.33Z"/><path class="cls-16" d="M71.6,47.37l3.26-3.3.66.63L72.25,48Z"/><path class="cls-16" d="M76.65,45.79a.92.92,0,0,1,.38.66,1.3,1.3,0,0,1-.42.68L74.75,49a1.27,1.27,0,0,1-.68.43,1,1,0,0,1-.68-.35l-.92-.89,3.26-3.29Zm-.7.72c.14-.14.14-.21,0-.33l-.12-.11-2.2,2.22.12.11c.12.12.2.11.33,0Z"/><path class="cls-16" d="M75.32,50.94l.51-.61-.44-.43-.61.52-.63-.6,3.6-3,1.12,1.08-2.93,3.62ZM76,49.4l.36.35L77.77,48l-.07-.07Z"/><path class="cls-16" d="M80.3,49.3c.27.25.4.47.38.66a1.19,1.19,0,0,1-.41.67L78.4,52.52a1.24,1.24,0,0,1-.68.43c-.19,0-.41-.1-.68-.36l-.92-.88,3.26-3.3Zm-.69.72c.13-.14.13-.22,0-.33l-.12-.11L77.31,51.8l.11.11c.12.12.2.11.33,0Z"/><path class="cls-17" d="M65.2,56.83l7.2-7.69L75.17,52,64.55,62.62A38.66,38.66,0,0,0,65.2,56.83Z"/><path class="cls-18" d="M73.62,52.73l-1.85-1.84a1.11,1.11,0,0,0-1.56,0l-3.32,3.24a1.07,1.07,0,0,0,0,1.54l1.85,1.84a1.11,1.11,0,0,0,1.56,0l3.33-3.23A1.09,1.09,0,0,0,73.62,52.73Zm-2.29-1.4,1.85,1.84a.46.46,0,0,1,0,.66l-.06.06-2.52-2.51.06-.06A.49.49,0,0,1,71.33,51.33Zm-2.15,5.73-1.85-1.84a.45.45,0,0,1,0-.66l.37-.36,2.51,2.51-.36.36A.47.47,0,0,1,69.18,57.06Z"/><path class="cls-17" d="M60.68,67.86,77.86,54.6l2.3,3.22L64.24,69.55S61.25,68.86,60.68,67.86Z"/><path class="cls-18" d="M78,58.71l-1.59-2.07a1.12,1.12,0,0,0-1.55-.21l-3.72,2.79a1.08,1.08,0,0,0-.21,1.53l1.59,2.06a1.12,1.12,0,0,0,1.55.21l3.72-2.79A1.08,1.08,0,0,0,78,58.71ZM75.9,57l1.6,2.06a.47.47,0,0,1-.09.66l-.07,0L75.17,57l.07,0A.46.46,0,0,1,75.9,57ZM73,62.43l-1.59-2.06a.47.47,0,0,1,.09-.66l.41-.3,2.17,2.81-.41.3A.48.48,0,0,1,73,62.43Z"/></svg>