<?xml version="1.0" encoding="utf-8"?>
<svg id="Capa_1" data-name="Capa 1" xmlns="http://www.w3.org/2000/svg" xmlns:xlink="http://www.w3.org/1999/xlink" viewBox="0 0 30.53 20"><defs><style>.cls-1{fill:none;}.cls-2{clip-path:url(#clip-path);}.cls-3{fill:#f5f5f5;}.cls-4{fill:#4173cd;}.cls-5{fill:#ffe15a;}.cls-6{fill:#ffcd5a;}</style><clipPath id="clip-path"><path class="cls-1" d="M28.24,0H2.29A2.28,2.28,0,0,0,0,2.29V17.71A2.28,2.28,0,0,0,2.29,20h26a2.29,2.29,0,0,0,2.29-2.29V2.29A2.29,2.29,0,0,0,28.24,0Z"/></clipPath></defs><title>uruguay</title><g class="cls-2"><path class="cls-3" d="M30,0H.53A.53.53,0,0,0,0,.53V19.47A.53.53,0,0,0,.53,20H30a.53.53,0,0,0,.53-.53V.53A.53.53,0,0,0,30,0Z"/><rect class="cls-4" x="11.05" y="2.22" width="19.47" height="2.22"/><rect class="cls-3" y="4.44" width="30.53" height="2.22"/><rect class="cls-4" x="11.05" y="6.67" width="19.47" height="2.22"/><rect class="cls-3" y="8.89" width="30.53" height="2.22"/><rect class="cls-4" y="11.11" width="30.53" height="2.22"/><rect class="cls-3" y="13.33" width="30.53" height="2.22"/><rect class="cls-4" y="15.56" width="30.53" height="2.22"/><polygon class="cls-5" points="3.81 1.39 4.7 5.47 6.07 4.9 3.81 1.39"/><polygon class="cls-6" points="3.81 1.39 5.38 5.18 4.7 5.47 3.81 1.39"/><polygon class="cls-5" points="7.24 9.66 6.36 5.58 4.98 6.16 7.24 9.66"/><polygon class="cls-6" points="7.24 9.66 5.67 5.87 6.36 5.58 7.24 9.66"/><polygon class="cls-5" points="9.66 3.81 5.58 4.7 6.16 6.07 9.66 3.81"/><polygon class="cls-6" points="9.66 3.81 5.87 5.38 5.58 4.7 9.66 3.81"/><polygon class="cls-5" points="1.39 7.24 5.47 6.36 4.9 4.98 1.39 7.24"/><polygon class="cls-6" points="1.39 7.24 5.18 5.67 5.47 6.36 1.39 7.24"/><polygon class="cls-5" points="7.24 1.39 4.98 4.9 6.36 5.47 7.24 1.39"/><polygon class="cls-6" points="7.24 1.39 5.67 5.18 4.98 4.9 7.24 1.39"/><polygon class="cls-5" points="3.81 9.66 6.07 6.16 4.7 5.58 3.81 9.66"/><polygon class="cls-6" points="3.81 9.66 5.38 5.87 6.07 6.16 3.81 9.66"/><polygon class="cls-5" points="9.66 7.24 6.16 4.98 5.58 6.36 9.66 7.24"/><polygon class="cls-6" points="9.66 7.24 5.87 5.67 6.16 4.98 9.66 7.24"/><polygon class="cls-5" points="1.39 3.81 4.9 6.07 5.47 4.7 1.39 3.81"/><polygon class="cls-6" points="1.39 3.81 5.18 5.38 4.9 6.07 1.39 3.81"/><polygon class="cls-5" points="5.53 1.05 4.78 5.15 6.27 5.15 5.53 1.05"/><polygon class="cls-6" points="5.53 1.05 5.53 5.15 4.78 5.15 5.53 1.05"/><polygon class="cls-5" points="5.53 10 6.27 5.9 4.78 5.9 5.53 10"/><polygon class="cls-6" points="5.53 10 5.53 5.9 6.27 5.9 5.53 10"/><polygon class="cls-5" points="10 5.53 5.9 4.78 5.9 6.27 10 5.53"/><polygon class="cls-6" points="10 5.53 5.9 5.53 5.9 4.78 10 5.53"/><polygon class="cls-5" points="1.05 5.53 5.15 6.27 5.15 4.78 1.05 5.53"/><polygon class="cls-6" points="1.05 5.53 5.15 5.53 5.15 6.27 1.05 5.53"/><polygon class="cls-5" points="8.69 2.36 5.26 4.74 6.32 5.79 8.69 2.36"/><polygon class="cls-6" points="8.69 2.36 5.79 5.26 5.26 4.74 8.69 2.36"/><polygon class="cls-5" points="2.36 8.69 5.79 6.32 4.74 5.26 2.36 8.69"/><polygon class="cls-6" points="2.36 8.69 5.26 5.79 5.79 6.32 2.36 8.69"/><polygon class="cls-5" points="8.69 8.69 6.32 5.26 5.26 6.32 8.69 8.69"/><polygon class="cls-6" points="8.69 8.69 5.79 5.79 6.32 5.26 8.69 8.69"/><polygon class="cls-5" points="2.36 2.36 4.74 5.79 5.79 4.74 2.36 2.36"/><polygon class="cls-6" points="2.36 2.36 5.26 5.26 4.74 5.79 2.36 2.36"/><circle class="cls-5" cx="5.53" cy="5.53" r="1.49"/></g></svg>