<?xml version="1.0" encoding="utf-8"?>
<svg id="Capa_1" data-name="Capa 1" xmlns="http://www.w3.org/2000/svg" viewBox="0 0 36 36"><defs><style>.cls-1{fill:#fff;}</style></defs><title>youtube</title><path class="cls-1" d="M15.76,14.63,21.61,18l-5.85,3.37ZM36,18A18,18,0,1,1,18,0,18,18,0,0,1,36,18Zm-7.22-5.41a2.83,2.83,0,0,0-2-2c-1.76-.49-8.8-.49-8.8-.49s-7,0-8.8.47a2.87,2.87,0,0,0-2,2A29.27,29.27,0,0,0,6.75,18a29.16,29.16,0,0,0,.47,5.41,2.83,2.83,0,0,0,2,2c1.78.49,8.8.49,8.8.49s7,0,8.8-.47a2.83,2.83,0,0,0,2-2A29.27,29.27,0,0,0,29.25,18,27.71,27.71,0,0,0,28.78,12.59Z"/></svg>